<?xml version="1.0" encoding="UTF-8" standalone="no"?>
<svg
   width="544.28552"
   height="137.00104"
   viewBox="0 0 544.28552 137.00104"
   version="1.1"
   xml:space="preserve"
   style="clip-rule:evenodd;fill-rule:evenodd;stroke-linejoin:round;stroke-miterlimit:2"
   id="svg1"
   sodipodi:docname="qbit-logo.svg"
   inkscape:version="1.4 (e7c3feb1, 2024-10-09)"
   xmlns:inkscape="http://www.inkscape.org/namespaces/inkscape"
   xmlns:sodipodi="http://sodipodi.sourceforge.net/DTD/sodipodi-0.dtd"
   xmlns="http://www.w3.org/2000/svg"
   xmlns:svg="http://www.w3.org/2000/svg"><defs
   id="defs1" /><sodipodi:namedview
   id="namedview1"
   pagecolor="#ffffff"
   bordercolor="#000000"
   borderopacity="0.25"
   inkscape:showpageshadow="2"
   inkscape:pageopacity="0.0"
   inkscape:pagecheckerboard="0"
   inkscape:deskcolor="#d1d1d1"
   inkscape:zoom="1.2025431"
   inkscape:cx="291.04987"
   inkscape:cy="30.768129"
   inkscape:window-width="1512"
   inkscape:window-height="811"
   inkscape:window-x="0"
   inkscape:window-y="38"
   inkscape:window-maximized="0"
   inkscape:current-layer="g38" />
    <g
   id="g38"
   transform="translate(-17.870424,-302.55862)">
        <g
   id="g31"
   transform="matrix(0.89840836,0,0,0.89842979,38.02092,39.358568)"
   style="stroke-width:1.39942">
            <path
   id="path1"
   d="m 235.644,433.701 c 0.834,-1.749 2.115,-4.692 2.846,-6.54 1.339,-3.381 3.526,-9.587 3.526,-10.003 0,-0.124 -0.446,-0.191 -0.992,-0.151 l -0.992,0.074 -1.122,3.359 c -2.14,6.409 -3.614,9.859 -3.614,8.453 0,-0.498 -2.014,-6.559 -3.107,-9.354 l -1.01,-2.58 h -1.087 c -0.779,0 -1.051,0.085 -0.959,0.299 1.651,3.864 3.089,7.96 4.946,14.1 0.138,0.455 -0.07,1.142 -0.861,2.849 -0.573,1.237 -1.042,2.344 -1.042,2.46 0,0.115 0.44,0.21 0.977,0.21 h 0.976 z"
   style="fill:#27384b;fill-rule:nonzero;stroke-width:1.39942" />
            <path
   id="path2"
   d="m 286.356,433.821 -0.068,2.94 -1.8,0.149 V 417.7 l 1.26,-0.387 c 1.687,-0.518 5.764,-0.729 7.092,-0.367 1.408,0.384 2.798,1.692 3.28,3.087 0.96,2.778 0.669,7.5 -0.584,9.476 -1.02,1.611 -2.428,2.212 -5.167,2.204 -1.577,-0.004 -2.368,-0.117 -2.929,-0.419 -0.422,-0.227 -0.824,-0.413 -0.892,-0.413 -0.069,0 -0.155,1.323 -0.192,2.94 z m 1.67,-4.23 c 1.216,0.453 4.138,0.304 4.988,-0.254 1.118,-0.731 1.425,-1.845 1.43,-5.178 0.009,-4.923 -0.623,-5.631 -4.892,-5.48 -1.399,0.05 -2.678,0.175 -2.843,0.28 -0.224,0.141 -0.3,1.403 -0.3,4.946 0,5.25 -0.054,5.063 1.617,5.686 z"
   style="fill:#27384b;stroke-width:1.39942" />
            <path
   id="path4"
   d="m 330.263,433.821 -0.068,2.941 -0.902,0.075 c -0.581,0.048 -0.945,-0.037 -1.023,-0.241 -0.066,-0.175 -0.092,-4.473 -0.058,-9.555 l 0.063,-9.238 1.32,-0.444 c 1.939,-0.651 5.831,-0.811 7.362,-0.302 2.077,0.688 3.05,2.14 3.481,5.184 0.521,3.682 -0.418,7.369 -2.172,8.527 -1.71,1.128 -5.257,1.37 -6.985,0.476 -0.386,-0.2 -0.758,-0.363 -0.827,-0.363 -0.068,0 -0.154,1.323 -0.191,2.94 z m 1.252,-4.422 0.002,0.002 c 0.917,0.474 1.351,0.543 2.883,0.463 1.184,-0.062 2.024,-0.239 2.447,-0.517 1.048,-0.686 1.512,-2.282 1.506,-5.184 -0.004,-2.789 -0.301,-3.959 -1.222,-4.825 -0.572,-0.536 -0.795,-0.575 -3.294,-0.575 -1.475,0 -2.873,0.078 -3.107,0.174 -0.39,0.159 -0.419,0.576 -0.36,5.04 l 0.065,4.864 z"
   style="fill:#27384b;stroke-width:1.39942" />
            <path
   id="path6"
   d="m 415.761,433.792 -0.001,3.088 h -0.848 c -0.466,0 -0.899,-0.135 -0.963,-0.3 -0.064,-0.168 -0.087,-4.459 -0.052,-9.542 l 0.063,-9.238 1.32,-0.45 c 1.698,-0.58 5.811,-0.805 7.106,-0.39 2.98,0.955 4.2,3.971 3.683,9.102 -0.223,2.212 -0.817,3.519 -2.067,4.55 -1.607,1.325 -5.212,1.589 -7.336,0.538 l -0.905,-0.447 z m 1.709,-4.201 -0.001,10e-4 c 1.159,0.419 3.402,0.393 4.515,-0.052 1.537,-0.615 1.977,-1.809 1.972,-5.346 -0.005,-3.054 -0.262,-4.09 -1.228,-4.952 -0.437,-0.391 -0.952,-0.496 -2.747,-0.562 -1.214,-0.045 -2.661,0.04 -3.214,0.189 l -1.006,0.271 v 4.524 c 0,5.053 0.082,5.339 1.709,5.927 z"
   style="fill:#27384b;stroke-width:1.39942" />
            <path
   id="path8"
   d="m 253.656,431.25 h -0.002 c -1.08,0.452 -3.972,0.666 -5.088,0.377 -3.115,-0.808 -4.364,-3.807 -4.099,-9.853 0.315,-7.194 1.593,-8.981 6.874,-9.624 1.232,-0.15 2.673,-0.425 3.201,-0.611 1.336,-0.471 1.379,-0.453 1.379,0.595 v 0.933 l -1.5,0.386 c -0.826,0.211 -2.342,0.493 -3.371,0.625 -1.028,0.132 -2.188,0.405 -2.577,0.607 -0.83,0.43 -1.544,1.719 -1.791,3.237 l -0.176,1.08 0.567,-0.51 c 0.905,-0.812 1.549,-1.059 3.164,-1.21 2.151,-0.2 3.93,0.354 5.026,1.567 1.232,1.363 1.496,2.364 1.497,5.672 0,4.149 -0.731,5.738 -3.104,6.729 z m -5.128,-1.718 h 0.002 c 1.122,0.572 3.772,0.436 4.685,-0.24 1.172,-0.867 1.388,-1.61 1.386,-4.771 -0.001,-2.3 -0.089,-3.057 -0.438,-3.761 -0.635,-1.277 -1.724,-1.725 -3.867,-1.587 -3.068,0.195 -3.614,0.986 -3.614,5.227 0,2.383 0.072,2.896 0.526,3.744 0.301,0.561 0.867,1.157 1.32,1.388 z"
   style="fill:#27384b;stroke-width:1.39942" />
            <path
   id="path10"
   d="m 308.963,431.577 c -2.455,0.526 -5.186,0.161 -6.662,-0.89 -1.528,-1.089 -2.384,-4.147 -2.131,-7.617 0.189,-2.594 0.695,-3.98 1.827,-5.003 1.148,-1.038 2.218,-1.344 4.703,-1.345 4.149,-0.003 5.841,1.471 6.349,5.524 0.292,2.328 -0.029,5.332 -0.713,6.673 -0.698,1.371 -1.943,2.351 -3.373,2.658 z m -4.493,-1.921 c 1.225,0.355 3.437,0.297 4.471,-0.116 1.514,-0.607 1.991,-1.851 2,-5.222 0.008,-2.987 -0.26,-4.127 -1.171,-4.983 -0.539,-0.506 -0.882,-0.585 -2.843,-0.658 -3.594,-0.133 -4.373,0.621 -4.615,4.474 -0.232,3.7 0.544,6.038 2.158,6.505 z"
   style="fill:#27384b;stroke-width:1.39942" />
            <path
   id="path12"
   d="m 352.432,431.501 -0.001,0.002 c -2.86,0.552 -5.805,0.307 -6.999,-0.583 -1.129,-0.842 -1.553,-1.909 -1.545,-3.878 0.009,-1.919 0.338,-2.84 1.342,-3.75 1.001,-0.907 2.203,-1.126 5.423,-0.987 l 2.973,0.128 -0.167,-0.995 c -0.425,-2.536 -1.037,-2.896 -4.643,-2.728 -1.399,0.065 -2.772,0.194 -3.053,0.285 -0.421,0.139 -0.555,0.035 -0.777,-0.6 -0.147,-0.422 -0.214,-0.854 -0.15,-0.959 0.236,-0.379 3.45,-0.775 5.44,-0.671 2.564,0.135 3.685,0.665 4.519,2.138 0.582,1.028 0.602,1.218 0.68,6.397 l 0.08,5.338 -0.68,0.262 c -0.375,0.143 -1.473,0.414 -2.442,0.601 z m -5.244,-1.822 0.001,-10e-4 c 0.757,0.306 4.088,0.29 5.338,-0.025 l 1.066,-0.269 v -2.477 c 0,-1.49 -0.102,-2.54 -0.255,-2.635 -0.527,-0.326 -4.931,-0.42 -5.825,-0.124 -1.134,0.374 -1.448,0.986 -1.434,2.792 0.014,1.635 0.335,2.427 1.109,2.739 z"
   style="fill:#27384b;stroke-width:1.39942" />
            <path
   id="path14"
   d="m 439.598,431.167 -0.003,0.002 c -0.684,0.303 -1.776,0.516 -2.922,0.57 -5.267,0.247 -7.222,-2.114 -6.942,-8.39 0.095,-2.157 0.208,-2.7 0.811,-3.906 0.546,-1.093 0.938,-1.534 1.781,-2.002 0.978,-0.543 1.345,-0.6 3.841,-0.6 2.497,0 2.864,0.058 3.84,0.6 0.843,0.468 1.235,0.908 1.781,2.002 0.603,1.207 0.716,1.75 0.812,3.906 0.195,4.408 -0.726,6.812 -2.999,7.818 z m -5.825,-1.651 10e-4,-0.001 c 0.653,0.341 1.229,0.415 2.672,0.341 3.358,-0.17 3.92,-0.987 3.92,-5.695 0,-4.785 -0.559,-5.519 -4.201,-5.519 -3.642,0 -4.201,0.734 -4.201,5.519 0,3.692 0.295,4.564 1.809,5.355 z"
   style="fill:#27384b;stroke-width:1.39942" />
            <path
   id="path16"
   d="m 470.056,431.501 v 0.002 c -4,0.772 -6.953,0.101 -8.005,-1.82 -0.376,-0.683 -0.447,-1.227 -0.388,-2.923 0.082,-2.332 0.434,-3.058 1.897,-3.914 0.958,-0.562 4.929,-0.802 6.664,-0.403 l 1.048,0.241 -0.162,-1.241 c -0.195,-1.481 -0.65,-2.254 -1.527,-2.593 -0.672,-0.26 -5.285,-0.154 -6.182,0.141 -0.414,0.136 -0.538,0.022 -0.758,-0.693 -0.144,-0.471 -0.192,-0.9 -0.105,-0.953 0.428,-0.264 3.211,-0.624 4.822,-0.622 2.202,10e-4 3.367,0.3 4.326,1.106 1.204,1.015 1.451,2.364 1.451,7.942 v 4.882 l -0.66,0.254 c -0.363,0.14 -1.452,0.407 -2.421,0.594 z m -5.244,-1.822 c 0.757,0.306 4.088,0.289 5.338,-0.026 l 1.066,-0.268 v -5.156 l -1.26,-0.152 c -3.179,-0.382 -5.472,-0.068 -5.944,0.814 -0.316,0.587 -0.301,3.5 0.02,4.099 0.14,0.263 0.492,0.573 0.78,0.689 z"
   style="fill:#27384b;stroke-width:1.39942" />
            <path
   id="path18"
   d="m 204.11,427.865 v -3.495 l 0.54,0.167 c 1.944,0.601 3.753,2.253 5.567,5.085 1.11,1.733 1.119,1.74 2.183,1.74 0.588,0 1.068,-0.102 1.068,-0.227 0,-0.125 -0.75,-1.349 -1.667,-2.721 -1.653,-2.473 -3.101,-4.028 -4.221,-4.538 -0.568,-0.259 -0.513,-0.336 2.413,-3.356 1.647,-1.7 2.993,-3.195 2.993,-3.325 0,-0.128 -0.458,-0.235 -1.019,-0.237 -0.997,-0.003 -1.097,0.073 -4.38,3.418 l -3.359,3.425 -0.133,-6.84 h -1.907 v 14.4 h 1.92 z"
   style="fill:#27384b;fill-rule:nonzero;stroke-width:1.39942" />
            <path
   id="path19"
   d="m 217.166,430.083 c 0.673,-2.316 1.548,-6.251 1.824,-8.201 0.472,-3.345 0.141,-2.999 2.883,-2.999 h 2.395 v 12.481 h 1.92 v -14.4 h -4.32 c -3.954,0 -4.32,0.036 -4.323,0.42 -0.014,2.982 -1.518,10.301 -2.808,13.663 -0.089,0.234 0.164,0.317 0.967,0.317 h 1.089 z"
   style="fill:#27384b;fill-rule:nonzero;stroke-width:1.39942" />
            <path
   id="path20"
   d="m 270.826,431.365 v -12.482 h 7.441 v 12.481 h 1.92 v -14.409 l -11.401,0.129 -0.127,14.281 z"
   style="fill:#27384b;fill-rule:nonzero;stroke-width:1.39942" />
            <path
   id="path21"
   d="m 319.071,425.128 v -6.234 l 7.081,-0.132 v -1.68 h -9.119 l -0.127,14.28 h 2.167 z"
   style="fill:#27384b;fill-rule:nonzero;stroke-width:1.39942" />
            <path
   id="path22"
   d="m 361.563,425.181 0.017,-6.179 0.496,1.08 c 0.273,0.594 1.333,3.132 2.357,5.641 l 1.861,4.561 h 1.808 l 1.726,-4.201 c 0.949,-2.31 2.003,-4.794 2.342,-5.519 l 0.617,-1.32 0.039,12.12 h 1.92 v -14.4 h -2.911 l -0.927,1.98 c -0.511,1.09 -1.524,3.439 -2.253,5.222 l -1.326,3.24 -0.551,-1.305 c -0.303,-0.718 -1.309,-3.039 -2.234,-5.16 l -1.682,-3.855 h -3.116 l -0.127,14.281 h 1.927 z"
   style="fill:#27384b;fill-rule:nonzero;stroke-width:1.39942" />
            <path
   id="path23"
   d="m 380.989,425.301 0.002,-6.06 0.557,1.2 c 0.306,0.66 1.354,3.172 2.329,5.578 l 1.772,4.38 h 1.721 l 1.623,-4.02 c 0.893,-2.211 1.985,-4.776 2.427,-5.7 l 0.805,-1.68 0.04,12.359 h 1.926 l -0.126,-14.281 h -3.036 l -1.381,3.121 c -0.76,1.716 -1.745,4.05 -2.191,5.187 l -0.81,2.066 -1.882,-4.345 c -1.036,-2.391 -2.051,-4.751 -2.257,-5.247 l -0.374,-0.9 h -3.067 v 14.4 h 1.92 z"
   style="fill:#27384b;fill-rule:nonzero;stroke-width:1.39942" />
            <path
   id="path24"
   d="m 401.273,429.981 c 0.603,-0.759 2.305,-3.18 3.785,-5.38 l 2.688,-4 0.129,10.761 h 1.918 l -0.127,-14.281 -0.86,-0.072 c -0.861,-0.073 -0.861,-0.072 -2.799,2.999 -1.066,1.689 -2.785,4.286 -3.818,5.771 l -1.881,2.698 -0.129,-11.517 h -1.912 v 14.4 h 0.957 c 0.877,0 1.047,-0.114 2.052,-1.38 z"
   style="fill:#27384b;fill-rule:nonzero;stroke-width:1.39942" />
            <path
   id="path25"
   d="m 456.322,430.941 0.003,0.001 c -0.698,0.355 -1.514,0.42 -5.324,0.42 H 446.5 v -14.4 h 3.827 c 6.431,0 7.452,0.497 7.452,3.629 0,1.455 -0.076,1.749 -0.589,2.261 -0.324,0.324 -0.783,0.592 -1.02,0.595 -0.276,0.003 -0.111,0.191 0.462,0.523 1.242,0.72 1.703,1.799 1.582,3.7 -0.111,1.749 -0.615,2.62 -1.892,3.271 z m -7.903,-10.14 -10e-4,1.92 h 3.195 c 3.723,0 3.996,-0.112 4.178,-1.726 0.101,-0.9 0.032,-1.189 -0.384,-1.606 -0.468,-0.467 -0.769,-0.508 -3.748,-0.508 h -3.24 z m 0,6.378 0.001,2.538 3.381,-0.078 c 3.22,-0.074 3.405,-0.105 3.841,-0.645 0.712,-0.881 0.639,-2.994 -0.131,-3.764 -0.569,-0.566 -0.708,-0.589 -3.841,-0.589 h -3.251 z"
   style="fill:#27384b;stroke-width:1.39942" />
            <path
   id="path28"
   d="m 479.147,431.362 v -6.961 h 7.679 v 6.959 h 1.92 v -14.4 h -1.92 v 5.76 h -7.679 v -5.788 l -1.8,0.149 -0.127,14.281 z"
   style="fill:#27384b;fill-rule:nonzero;stroke-width:1.39942" />
            <path
   id="path29"
   d="m 497.359,428.077 c 1.269,-1.741 2.928,-4.165 3.685,-5.383 l 1.38,-2.217 v 10.885 h 1.92 v -14.4 l -0.9,0.002 c -0.891,0.002 -0.918,0.031 -2.62,2.82 -0.946,1.549 -2.62,4.107 -3.719,5.683 l -2,2.866 -0.24,-11.253 h -1.92 l -0.063,6.837 c -0.035,3.761 -0.009,6.979 0.057,7.154 0.081,0.21 0.458,0.292 1.118,0.243 0.979,-0.072 1.037,-0.129 3.303,-3.24 z"
   style="fill:#27384b;fill-rule:nonzero;stroke-width:1.39942" />
            <path
   id="path30"
   d="m 510.628,429.386 -1.027,1.976 h -2.142 l 0.875,-1.74 c 1.2,-2.387 2.16,-3.732 3.056,-4.277 0.704,-0.43 0.717,-0.461 0.192,-0.462 -0.913,-0.002 -2.219,-0.747 -2.704,-1.542 -0.668,-1.094 -0.622,-3.416 0.088,-4.47 1.075,-1.596 1.71,-1.776 6.599,-1.874 l 4.38,-0.088 v 14.454 h -1.92 v -6.001 h -1.53 c -0.842,0 -1.885,0.071 -2.318,0.158 -1.116,0.224 -2.356,1.575 -3.549,3.866 z m 1.028,-5.932 0.003,-0.001 c 0.266,0.109 1.81,0.204 3.427,0.213 l 2.939,0.014 v -4.799 h -2.985 c -3.651,0 -4.107,0.145 -4.45,1.42 -0.399,1.484 0.022,2.729 1.066,3.153 z"
   style="fill:#27384b;stroke-width:1.39942" />
        </g>
        <g
   id="g37"
   transform="matrix(0.999681,0,0,0.999806,1.56504,0.0586508)">
            <path
   id="path32"
   d="m 285.497,395.602 c 17.821,-1.69 29.48,-14.054 32.655,-34.668 0.857,-5.533 1.298,-17.943 1.398,-39.316 0.061,-13.184 0.025,-15.098 -0.29,-15.296 -0.584,-0.369 -26.694,-0.307 -27.182,0.065 -0.348,0.267 -0.369,0.674 -0.181,3.66 0.474,7.546 0.768,17.609 0.669,22.921 -0.094,5.045 -0.16,5.791 -0.631,7.081 -1.249,3.424 -3.458,5.394 -6.046,5.397 -2.227,0.003 -3.75,-1.295 -4.825,-4.113 -0.511,-1.342 -0.554,-1.911 -1.145,-15.205 -0.271,-6.098 -0.634,-7.903 -2.261,-11.279 -1.974,-4.094 -5.128,-7.243 -9.156,-9.136 -3.215,-1.511 -4.958,-1.893 -8.64,-1.895 -3.677,-10e-4 -5.21,0.341 -8.399,1.878 -4.3,2.069 -8.008,5.879 -7.759,7.973 0.063,0.53 0.406,0.831 1.858,1.634 3.345,1.85 5.216,4.439 6.367,8.815 0.756,2.875 1.013,5.012 1.441,11.983 0.374,6.091 0.741,8.373 1.821,11.332 3.325,9.108 11.593,14.928 21.132,14.868 5.723,-0.036 10.76,-2.179 14.819,-6.304 l 1.657,-1.683 0.151,0.757 c 0.306,1.526 0.158,12.778 -0.205,15.703 -0.817,6.574 -2.7,10.506 -5.741,11.994 -3.557,1.74 -7.089,0.593 -8.787,-2.855 -1.228,-2.494 -1.217,-5.057 0.038,-9.399 0.389,-1.343 0.107,-2.21 -1.071,-3.3 -2.925,-2.704 -8.113,-3.878 -12.832,-2.905 -6.86,1.414 -10.735,6.48 -10.273,13.427 0.46,6.889 4.147,12.167 10.553,15.118 2.991,1.376 7.492,2.503 11.311,2.83 2.204,0.189 7.137,0.146 9.552,-0.083 z"
   style="fill:#27384b;fill-rule:nonzero" />
            <path
   id="path33"
   d="m 233.254,394.391 c 5.432,-1.365 9.888,-5.95 11.285,-11.61 0.525,-2.128 0.29,-2.937 -1.001,-3.439 -1.73,-0.671 -4.09,-2.36 -5.953,-4.26 -3.903,-3.98 -6.709,-8.445 -11.917,-18.953 -2.223,-4.487 -4.575,-8.969 -5.227,-9.961 -1.414,-2.153 -3.517,-4.274 -5.079,-5.125 -1.354,-0.736 -3.595,-1.355 -4.91,-1.355 h -0.945 l 0.148,-3.3 c 0.232,-5.173 1.474,-9.499 3.37,-11.741 0.99,-1.17 2.576,-1.84 4.026,-1.701 2.254,0.216 3.05,1.363 3.072,4.436 0.016,1.981 0.188,2.19 2.313,2.813 4.555,1.337 10.562,0.901 14.131,-1.025 4.212,-2.273 6.857,-7.143 6.879,-12.668 0.014,-3.274 -0.592,-5.261 -2.356,-7.736 -1.862,-2.609 -4.805,-4.43 -8.64,-5.349 -2.897,-0.693 -7.49,-0.539 -10.985,0.368 -7.92,2.056 -14.468,7.773 -18.343,16.013 -2.515,5.349 -3.838,11.013 -4.24,18.15 -0.155,2.74 -0.201,2.951 -0.675,3.05 -1.567,0.327 -2.908,0.569 -2.94,0.531 -0.019,-0.023 0.111,-4.524 0.29,-10.004 0.346,-10.627 0.261,-12.755 -0.638,-16.081 -0.834,-3.084 -2.019,-5.164 -4.176,-7.338 -3.016,-3.039 -6.094,-4.454 -10.581,-4.862 -4.057,-0.369 -7.302,0.22 -11.106,2.014 -3.83,1.807 -6.421,3.949 -7.526,6.228 -0.501,1.031 -0.504,1.078 -0.079,1.547 0.24,0.266 0.99,0.795 1.664,1.176 2.617,1.478 4.314,4.136 5.184,8.133 0.466,2.131 0.48,3.155 0.498,35.858 0.013,23.088 0.098,33.761 0.271,33.988 0.365,0.44 26.419,0.443 26.779,0.003 0.168,-0.206 0.109,-6.081 -0.188,-18.661 -0.262,-11.12 -0.346,-18.451 -0.213,-18.592 0.121,-0.128 1.107,-0.236 2.192,-0.24 l 1.973,-0.009 0.191,1.44 c 0.418,3.144 1.697,9.765 2.457,12.719 2.671,10.392 6.766,17.717 12.24,21.895 1.735,1.324 5.193,3.005 7.288,3.54 3.441,0.882 8.209,0.927 11.469,0.107 z"
   style="fill:#27384b;fill-rule:nonzero" />
            <path
   id="path34"
   d="m 369.119,394.518 -0.009,-10e-4 c -5.726,0.747 -12.053,0.657 -16.611,-0.237 -14.216,-2.79 -23.664,-12.887 -25.929,-27.715 -0.29,-1.899 -0.348,-7.154 -0.35,-31.379 l -0.001,-29.112 0.54,-0.22 c 0.298,-0.122 1.89,-0.338 3.54,-0.481 16.696,-1.446 35.816,-1.574 52.328,-0.35 7.434,0.551 8.912,0.728 9.147,1.094 0.463,0.72 0.729,2.128 0.859,4.55 0.247,4.538 -0.876,7.804 -3.713,10.811 -2.679,2.841 -6.063,4.6 -10.443,5.426 -3.444,0.649 -13.944,0.571 -19.851,-0.148 -2.442,-0.297 -4.683,-0.6 -4.98,-0.673 l -0.54,-0.132 v 5.443 c 0,5.071 0.028,5.434 0.42,5.32 2.715,-0.793 13.11,-0.974 17.651,-0.306 9.961,1.463 17.753,5.621 22.518,12.01 3.678,4.933 5.233,10.664 4.763,17.555 -1.086,15.965 -11.648,26.236 -29.339,28.545 z m -9.213,-14.615 c 0.552,0.172 1.813,0.32 2.803,0.329 1.503,0.013 2.037,-0.097 3.24,-0.669 2.71,-1.287 4.743,-4.232 5.91,-8.555 0.419,-1.553 0.518,-2.587 0.518,-5.4 0,-3.957 -0.454,-6.174 -1.771,-8.646 -1.48,-2.775 -4.425,-4.928 -7.897,-5.768 -1.509,-0.365 -5.588,-0.439 -7.98,-0.146 l -1.62,0.199 v 9.23 c 0,7.484 0.072,9.578 0.38,11.069 0.898,4.349 3.203,7.352 6.417,8.357 z"
   style="fill:#27384b" />
            <path
   id="path36"
   d="m 531.601,394.022 c 4.737,-1.371 9.737,-4.872 11.092,-7.767 0.694,-1.482 0.589,-1.745 -1.101,-2.726 -3.722,-2.161 -5.528,-5.964 -6.089,-12.827 -0.23,-2.818 -0.801,-43.029 -0.613,-43.2 0.045,-0.045 1.793,0.048 3.883,0.207 9.122,0.695 14.522,-0.534 18.116,-4.127 1.521,-1.52 2.844,-3.963 3.487,-6.446 0.79,-3.045 0.314,-10.429 -0.741,-11.484 -0.283,-0.282 -1.23,-0.338 -5.103,-0.301 -8.339,0.08 -18.496,-0.431 -31.634,-1.59 -5.692,-0.503 -8.657,-0.637 -14.159,-0.644 -6.843,-0.008 -7.002,0.003 -9.355,0.646 -3.084,0.842 -6.78,2.664 -8.793,4.332 -1.887,1.566 -3.622,4.064 -4.498,6.48 -0.561,1.544 -0.626,2.069 -0.63,5.082 -0.003,2.492 0.11,3.807 0.437,5.085 0.714,2.785 0.421,2.662 4.87,2.039 4.757,-0.666 7.855,-0.925 13.626,-1.137 l 4.539,-0.167 -0.162,13.652 c -0.088,7.508 -0.163,19.428 -0.165,26.489 -0.003,11.75 0.034,13.025 0.455,15.015 1.123,5.304 3.753,9.264 7.773,11.696 4.045,2.45 9.873,3.121 14.768,1.705 z"
   style="fill:#27384b;fill-rule:nonzero" />
            <path
   id="path37"
   d="m 432.587,392.187 c 0.546,-0.422 3.54,-6.066 10.655,-20.1 8.272,-16.308 13.105,-25.705 13.181,-25.626 0.035,0.036 -0.189,2.496 -0.499,5.466 -0.467,4.493 -0.605,7.718 -0.815,19.199 -0.321,17.438 -0.344,20.786 -0.148,21.104 0.196,0.316 25.282,0.353 25.781,0.038 0.281,-0.178 0.305,-6.749 0.16,-43.03 -0.156,-38.919 -0.206,-42.831 -0.557,-43.115 -0.296,-0.23 -2.968,-0.3 -11.475,-0.3 -10.221,0 -11.123,0.033 -11.557,0.42 -0.258,0.232 -5.85,11.569 -12.43,25.198 -6.579,13.626 -12.001,24.738 -12.047,24.689 -0.047,-0.047 0.141,-2.182 0.418,-4.745 0.469,-4.325 0.498,-5.672 0.409,-18.93 -0.083,-12.288 -0.152,-14.502 -0.497,-15.922 -1.553,-6.398 -5.374,-10.72 -11.075,-12.532 -2.304,-0.732 -5.536,-1.043 -8.172,-0.787 -5.136,0.498 -11.361,3.719 -13.816,7.146 -1.455,2.031 -1.301,2.612 1.044,3.951 2.928,1.672 4.524,4.527 5.337,9.553 0.312,1.923 0.364,6.925 0.364,35.263 10e-4,18.162 0.073,33.081 0.161,33.194 0.089,0.088 5.792,0.16 12.674,0.16 9.644,0 12.603,-0.069 12.903,-0.3 z"
   style="fill:#27384b;fill-rule:nonzero" />
        </g>
    </g>
    <g
   id="g47"
   transform="matrix(1.17081,0,0,1.17081,-53.492772,-352.85052)">
        <path
   id="path38"
   d="m 98.932,417.872 0.016,-0.005 c -1.109,0.698 -2.688,0.693 -3.96,-0.014 -4.536,-2.512 -45.908,-26.35 -46.914,-27.023 -0.717,-0.48 -1.527,-1.177 -1.8,-1.55 -0.494,-0.669 -0.497,-0.791 -0.568,-28.913 -0.05,-19.758 0.007,-28.514 0.188,-29.14 0.179,-0.617 0.604,-1.159 1.366,-1.74 0.609,-0.465 1.206,-0.845 1.328,-0.845 0.122,0 0.566,-0.254 0.986,-0.565 1.02,-0.765 42.919,-24.817 44.22,-25.393 0.568,-0.251 1.088,-0.546 1.156,-0.656 0.068,-0.111 0.595,-0.333 1.17,-0.494 1.141,-0.319 1.297,-0.273 3.926,1.161 4.734,2.582 45.219,25.997 46.12,26.676 0.619,0.468 1.264,1.136 1.432,1.485 0.19,0.394 0.281,4.168 0.343,16.261 0.016,3.231 0.03,7.056 0.044,11.57 0.044,14.958 0.155,27.681 0.247,28.275 0.249,1.622 -0.54,3.01 -2.26,3.977 -0.726,0.408 -11.041,6.339 -22.921,13.179 -11.88,6.837 -21.977,12.612 -22.439,12.829 -0.462,0.218 -1.218,0.634 -1.68,0.925 z m 12.093,-81.627 0.006,-0.003 c 5.672,3.293 9.795,5.545 10.007,5.465 0.972,-0.366 15.844,-9.09 15.786,-9.261 -0.085,-0.232 -35.157,-20.612 -35.773,-20.784 -0.395,-0.11 -0.421,0.44 -0.421,9.122 0,8.069 0.048,9.28 0.374,9.55 0.207,0.17 4.714,2.829 10.021,5.911 z m -35.966,61.617 0.002,-0.002 c 9.896,5.745 18.075,10.451 18.176,10.454 0.1,0.003 0.154,-4.218 0.12,-9.38 l -0.063,-9.386 -20.047,-11.681 -8.155,4.711 c -4.484,2.59 -8.125,4.738 -8.09,4.773 0.034,0.037 8.161,4.766 18.057,10.511 z m 25.611,1.1 0.008,-0.002 c -0.053,7.831 -0.009,9.393 0.261,9.289 0.312,-0.119 34.101,-19.679 35.49,-20.542 l 0.658,-0.409 -16.305,-9.434 -20.05,11.684 z M 84.951,376.223 84.95,376.22 c 4.456,2.582 8.183,4.705 8.283,4.717 0.101,0.011 0.155,-4.218 0.12,-9.397 l -0.063,-9.42 -7.92,-4.6 c -4.356,-2.53 -8.055,-4.609 -8.22,-4.621 -0.235,-0.014 -0.3,1.996 -0.3,9.304 v 9.323 z m 15.421,-4.669 -0.002,9.447 1.38,-0.787 c 0.76,-0.434 4.405,-2.541 8.102,-4.683 l 6.721,-3.895 0.062,-9.377 c 0.035,-5.159 -0.006,-9.377 -0.091,-9.377 -0.085,0 -3.759,2.077 -8.164,4.615 l -8.008,4.615 z m 31.918,4.737 8.042,4.657 0.063,-10.431 c 0.034,-5.738 0.034,-15.126 0,-20.861 l -0.063,-10.428 -16.081,9.3 v 23.108 z m -79.2,-16.569 v 0.003 c 0,19.722 0.022,20.804 0.42,20.653 0.233,-0.088 3.903,-2.173 8.161,-4.634 l 7.739,-4.476 v -23.117 l -7.739,-4.462 c -4.258,-2.454 -7.93,-4.533 -8.161,-4.62 -0.398,-0.15 -0.42,0.933 -0.42,20.653 z m 35.887,-8.909 h 0.005 c 4.224,2.446 7.822,4.453 7.997,4.459 0.227,0.008 15.735,-8.767 16.308,-9.227 0.034,-0.028 -3.612,-2.176 -8.102,-4.771 l -8.166,-4.719 -8.178,4.725 c -5.259,3.038 -8.064,4.789 -7.861,4.904 0.173,0.099 3.773,2.182 7.997,4.629 z m -23.76,-13.527 h -0.014 c 4.504,2.595 8.069,4.504 8.268,4.428 0.607,-0.233 19.073,-10.971 19.514,-11.347 0.387,-0.332 0.42,-1.095 0.42,-9.59 0,-8.675 -0.025,-9.223 -0.42,-9.113 -0.765,0.215 -35.688,20.585 -35.688,20.823 0,0.13 3.566,2.289 7.92,4.799 z"
   style="fill:#27384b" />
    </g>
</svg>
