<?xml version="1.0" encoding="UTF-8" standalone="no"?>
<svg
   width="525.8645"
   height="137.45924"
   viewBox="0 0 525.8645 137.45924"
   version="1.1"
   xml:space="preserve"
   style="clip-rule:evenodd;fill-rule:evenodd;stroke-linejoin:round;stroke-miterlimit:2"
   id="svg47"
   sodipodi:docname="qbit-logo.svg"
   inkscape:version="1.4 (e7c3feb1, 2024-10-09)"
   xmlns:inkscape="http://www.inkscape.org/namespaces/inkscape"
   xmlns:sodipodi="http://sodipodi.sourceforge.net/DTD/sodipodi-0.dtd"
   xmlns="http://www.w3.org/2000/svg"
   xmlns:svg="http://www.w3.org/2000/svg"><defs
   id="defs47" /><sodipodi:namedview
   id="namedview47"
   pagecolor="#ffffff"
   bordercolor="#000000"
   borderopacity="0.25"
   inkscape:showpageshadow="2"
   inkscape:pageopacity="0.0"
   inkscape:pagecheckerboard="0"
   inkscape:deskcolor="#d1d1d1"
   inkscape:zoom="0.28999277"
   inkscape:cx="265.52386"
   inkscape:cy="127.58939"
   inkscape:window-width="1512"
   inkscape:window-height="699"
   inkscape:window-x="0"
   inkscape:window-y="38"
   inkscape:window-maximized="0"
   inkscape:current-layer="svg47" />
    <g
   transform="translate(-36.291572,-302.98496)"
   id="g38">
        <g
   transform="matrix(1.25725,0,0,1.25728,-91.5448,-108.874)"
   id="g31">
            <path
   d="m 235.644,433.701 c 0.834,-1.749 2.115,-4.692 2.846,-6.54 1.339,-3.381 3.526,-9.587 3.526,-10.003 0,-0.124 -0.446,-0.191 -0.992,-0.151 l -0.992,0.074 -1.122,3.359 c -2.14,6.409 -3.614,9.859 -3.614,8.453 0,-0.498 -2.014,-6.559 -3.107,-9.354 l -1.01,-2.58 h -1.087 c -0.779,0 -1.051,0.085 -0.959,0.299 1.651,3.864 3.089,7.96 4.946,14.1 0.138,0.455 -0.07,1.142 -0.861,2.849 -0.573,1.237 -1.042,2.344 -1.042,2.46 0,0.115 0.44,0.21 0.977,0.21 h 0.976 z"
   style="fill:#31406f;fill-rule:nonzero"
   id="path1" />
            <path
   d="m 286.356,433.821 c 0.037,-1.617 0.123,-2.94 0.192,-2.94 0.068,0 0.47,0.186 0.892,0.413 0.561,0.302 1.352,0.415 2.929,0.419 2.739,0.008 4.147,-0.593 5.167,-2.204 1.253,-1.976 1.544,-6.698 0.584,-9.476 -0.482,-1.395 -1.872,-2.703 -3.28,-3.087 -1.328,-0.362 -5.405,-0.151 -7.092,0.367 l -1.26,0.387 v 19.21 l 1.8,-0.149 z"
   style="fill:#31406f;fill-rule:nonzero"
   id="path2" />
            <path
   d="m 288.026,429.591 c -1.671,-0.623 -1.617,-0.436 -1.617,-5.686 0,-3.543 0.076,-4.805 0.3,-4.946 0.165,-0.105 1.444,-0.23 2.843,-0.28 4.269,-0.151 4.901,0.557 4.892,5.48 -0.005,3.333 -0.312,4.447 -1.43,5.178 -0.85,0.558 -3.772,0.707 -4.988,0.254 z"
   style="fill:#ffffff;fill-rule:nonzero"
   id="path3" />
            <path
   d="m 330.263,433.821 c 0.037,-1.617 0.123,-2.94 0.191,-2.94 0.069,0 0.441,0.163 0.827,0.363 1.728,0.894 5.275,0.652 6.985,-0.476 1.754,-1.158 2.693,-4.845 2.172,-8.527 -0.431,-3.044 -1.404,-4.496 -3.481,-5.184 -1.531,-0.509 -5.423,-0.349 -7.362,0.302 l -1.32,0.444 -0.063,9.238 c -0.034,5.082 -0.008,9.38 0.058,9.555 0.078,0.204 0.442,0.289 1.023,0.241 l 0.902,-0.075 z"
   style="fill:#31406f;fill-rule:nonzero"
   id="path4" />
            <path
   d="m 331.515,429.399 -1.08,-0.558 -0.065,-4.864 c -0.059,-4.464 -0.03,-4.881 0.36,-5.04 0.234,-0.096 1.632,-0.174 3.107,-0.174 2.499,0 2.722,0.039 3.294,0.575 0.921,0.866 1.218,2.036 1.222,4.825 0.006,2.902 -0.458,4.498 -1.506,5.184 -0.423,0.278 -1.263,0.455 -2.447,0.517 -1.532,0.08 -1.966,0.011 -2.883,-0.463 z"
   style="fill:#ffffff;fill-rule:nonzero"
   id="path5" />
            <path
   d="m 415.761,433.792 v -3.089 l 0.905,0.447 c 2.124,1.051 5.729,0.787 7.336,-0.538 1.25,-1.031 1.844,-2.338 2.067,-4.55 0.517,-5.131 -0.703,-8.147 -3.683,-9.102 -1.295,-0.415 -5.408,-0.19 -7.106,0.39 l -1.32,0.45 -0.063,9.238 c -0.035,5.083 -0.012,9.374 0.052,9.542 0.064,0.165 0.497,0.3 0.963,0.3 h 0.848 z"
   style="fill:#31406f;fill-rule:nonzero"
   id="path6" />
            <path
   d="m 417.47,429.591 c -1.627,-0.588 -1.709,-0.874 -1.709,-5.927 v -4.524 l 1.006,-0.271 c 0.553,-0.149 2,-0.234 3.214,-0.189 1.795,0.066 2.31,0.171 2.747,0.562 0.966,0.862 1.223,1.898 1.228,4.952 0.005,3.537 -0.435,4.731 -1.972,5.346 -1.113,0.445 -3.356,0.471 -4.515,0.052 z"
   style="fill:#ffffff;fill-rule:nonzero"
   id="path7" />
            <path
   d="m 253.656,431.25 c 2.373,-0.991 3.104,-2.58 3.104,-6.729 -10e-4,-3.308 -0.265,-4.309 -1.497,-5.672 -1.096,-1.213 -2.875,-1.767 -5.026,-1.567 -1.615,0.151 -2.259,0.398 -3.164,1.21 l -0.567,0.51 0.176,-1.08 c 0.247,-1.518 0.961,-2.807 1.791,-3.237 0.389,-0.202 1.549,-0.475 2.577,-0.607 1.029,-0.132 2.545,-0.414 3.371,-0.625 l 1.5,-0.386 v -0.933 c 0,-1.048 -0.043,-1.066 -1.379,-0.595 -0.528,0.186 -1.969,0.461 -3.201,0.611 -5.281,0.643 -6.559,2.43 -6.874,9.624 -0.265,6.046 0.984,9.045 4.099,9.853 1.116,0.289 4.008,0.075 5.088,-0.377 z"
   style="fill:#31406f;fill-rule:nonzero"
   id="path8" />
            <path
   d="m 248.528,429.532 c -0.453,-0.231 -1.019,-0.827 -1.32,-1.388 -0.454,-0.848 -0.526,-1.361 -0.526,-3.744 0,-4.241 0.546,-5.032 3.614,-5.227 2.143,-0.138 3.232,0.31 3.867,1.587 0.349,0.704 0.437,1.461 0.438,3.761 0.002,3.161 -0.214,3.904 -1.386,4.771 -0.913,0.676 -3.563,0.812 -4.685,0.24 z"
   style="fill:#ffffff;fill-rule:nonzero"
   id="path9" />
            <path
   d="m 308.963,431.577 c 1.43,-0.307 2.675,-1.287 3.373,-2.658 0.684,-1.341 1.005,-4.345 0.713,-6.673 -0.508,-4.053 -2.2,-5.527 -6.349,-5.524 -2.485,0.001 -3.555,0.307 -4.703,1.345 -1.132,1.023 -1.638,2.409 -1.827,5.003 -0.253,3.47 0.603,6.528 2.131,7.617 1.476,1.051 4.207,1.416 6.662,0.889 z"
   style="fill:#31406f;fill-rule:nonzero"
   id="path10" />
            <path
   d="m 304.47,429.656 c -1.614,-0.467 -2.39,-2.805 -2.158,-6.505 0.242,-3.853 1.021,-4.607 4.615,-4.474 1.961,0.073 2.304,0.152 2.843,0.658 0.911,0.856 1.179,1.996 1.171,4.983 -0.009,3.371 -0.486,4.615 -2,5.222 -1.034,0.413 -3.246,0.471 -4.471,0.116 z"
   style="fill:#ffffff;fill-rule:nonzero"
   id="path11" />
            <path
   d="m 352.432,431.501 c 0.969,-0.187 2.067,-0.458 2.442,-0.601 l 0.68,-0.262 -0.08,-5.338 c -0.078,-5.179 -0.098,-5.369 -0.68,-6.397 -0.834,-1.473 -1.955,-2.003 -4.519,-2.138 -1.99,-0.104 -5.204,0.292 -5.44,0.671 -0.064,0.105 0.003,0.537 0.15,0.959 0.222,0.635 0.356,0.739 0.777,0.6 0.281,-0.091 1.654,-0.22 3.053,-0.285 3.606,-0.168 4.218,0.192 4.643,2.728 l 0.167,0.995 -2.973,-0.128 c -3.22,-0.139 -4.422,0.08 -5.423,0.987 -1.004,0.91 -1.333,1.831 -1.342,3.75 -0.008,1.969 0.416,3.036 1.545,3.878 1.194,0.89 4.139,1.135 6.999,0.583 z"
   style="fill:#31406f;fill-rule:nonzero"
   id="path12" />
            <path
   d="m 347.188,429.679 c -0.774,-0.312 -1.095,-1.104 -1.109,-2.739 -0.014,-1.806 0.3,-2.418 1.434,-2.792 0.894,-0.296 5.298,-0.202 5.825,0.124 0.153,0.095 0.255,1.145 0.255,2.635 v 2.477 l -1.066,0.269 c -1.25,0.315 -4.581,0.331 -5.338,0.025 z"
   style="fill:#ffffff;fill-rule:nonzero"
   id="path13" />
            <path
   d="m 439.598,431.167 c 2.273,-1.006 3.194,-3.41 2.999,-7.818 -0.096,-2.156 -0.209,-2.699 -0.812,-3.906 -0.546,-1.094 -0.938,-1.534 -1.781,-2.002 -0.976,-0.542 -1.343,-0.6 -3.84,-0.6 -2.496,0 -2.863,0.057 -3.841,0.6 -0.843,0.468 -1.235,0.909 -1.781,2.002 -0.603,1.206 -0.716,1.749 -0.811,3.906 -0.28,6.276 1.675,8.637 6.942,8.39 1.146,-0.054 2.238,-0.267 2.922,-0.57 z"
   style="fill:#31406f;fill-rule:nonzero"
   id="path14" />
            <path
   d="m 433.773,429.516 c -1.514,-0.791 -1.809,-1.663 -1.809,-5.355 0,-4.785 0.559,-5.519 4.201,-5.519 3.642,0 4.201,0.734 4.201,5.519 0,4.708 -0.562,5.525 -3.92,5.695 -1.443,0.074 -2.019,0 -2.672,-0.341 z"
   style="fill:#ffffff;fill-rule:nonzero"
   id="path15" />
            <path
   d="m 470.056,431.501 c 0.969,-0.187 2.058,-0.454 2.421,-0.594 l 0.66,-0.254 v -4.882 c 0,-5.578 -0.247,-6.927 -1.451,-7.942 -0.959,-0.806 -2.124,-1.105 -4.326,-1.106 -1.611,-0.002 -4.394,0.358 -4.822,0.622 -0.087,0.053 -0.039,0.482 0.105,0.953 0.22,0.715 0.344,0.829 0.758,0.693 0.897,-0.295 5.51,-0.401 6.182,-0.141 0.877,0.339 1.332,1.112 1.527,2.593 l 0.162,1.241 -1.048,-0.241 c -1.735,-0.399 -5.706,-0.159 -6.664,0.403 -1.463,0.856 -1.815,1.582 -1.897,3.914 -0.059,1.696 0.012,2.24 0.388,2.923 1.052,1.921 4.005,2.592 8.005,1.82 z"
   style="fill:#31406f;fill-rule:nonzero"
   id="path16" />
            <path
   d="m 464.812,429.679 c -0.288,-0.116 -0.64,-0.426 -0.78,-0.689 -0.321,-0.599 -0.336,-3.512 -0.02,-4.099 0.472,-0.882 2.765,-1.196 5.944,-0.814 l 1.26,0.152 v 5.156 l -1.066,0.268 c -1.25,0.315 -4.581,0.332 -5.338,0.026 z"
   style="fill:#ffffff;fill-rule:nonzero"
   id="path17" />
            <path
   d="m 204.11,427.865 v -3.495 l 0.54,0.167 c 1.944,0.601 3.753,2.253 5.567,5.085 1.11,1.733 1.119,1.74 2.183,1.74 0.588,0 1.068,-0.102 1.068,-0.227 0,-0.125 -0.75,-1.349 -1.667,-2.721 -1.653,-2.473 -3.101,-4.028 -4.221,-4.538 -0.568,-0.259 -0.513,-0.336 2.413,-3.356 1.647,-1.7 2.993,-3.195 2.993,-3.325 0,-0.128 -0.458,-0.235 -1.019,-0.237 -0.997,-0.003 -1.097,0.073 -4.38,3.418 l -3.359,3.425 -0.133,-6.84 h -1.907 v 14.4 h 1.92 z"
   style="fill:#31406f;fill-rule:nonzero"
   id="path18" />
            <path
   d="m 217.166,430.083 c 0.673,-2.316 1.548,-6.251 1.824,-8.201 0.472,-3.345 0.141,-2.999 2.883,-2.999 h 2.395 v 12.481 h 1.92 v -14.4 h -4.32 c -3.954,0 -4.32,0.036 -4.323,0.42 -0.014,2.982 -1.518,10.301 -2.808,13.663 -0.089,0.234 0.164,0.317 0.967,0.317 h 1.089 z"
   style="fill:#31406f;fill-rule:nonzero"
   id="path19" />
            <path
   d="m 270.826,431.365 v -12.482 h 7.441 v 12.481 h 1.92 v -14.409 l -11.401,0.129 -0.127,14.281 z"
   style="fill:#31406f;fill-rule:nonzero"
   id="path20" />
            <path
   d="m 319.071,425.128 v -6.234 l 7.081,-0.132 v -1.68 h -9.119 l -0.127,14.28 h 2.167 z"
   style="fill:#31406f;fill-rule:nonzero"
   id="path21" />
            <path
   d="m 361.563,425.181 0.017,-6.179 0.496,1.08 c 0.273,0.594 1.333,3.132 2.357,5.641 l 1.861,4.561 h 1.808 l 1.726,-4.201 c 0.949,-2.31 2.003,-4.794 2.342,-5.519 l 0.617,-1.32 0.039,12.12 h 1.92 v -14.4 h -2.911 l -0.927,1.98 c -0.511,1.09 -1.524,3.439 -2.253,5.222 l -1.326,3.24 -0.551,-1.305 c -0.303,-0.718 -1.309,-3.039 -2.234,-5.16 l -1.682,-3.855 h -3.116 l -0.127,14.281 h 1.927 z"
   style="fill:#31406f;fill-rule:nonzero"
   id="path22" />
            <path
   d="m 380.989,425.301 0.002,-6.06 0.557,1.2 c 0.306,0.66 1.354,3.172 2.329,5.578 l 1.772,4.38 h 1.721 l 1.623,-4.02 c 0.893,-2.211 1.985,-4.776 2.427,-5.7 l 0.805,-1.68 0.04,12.359 h 1.926 l -0.126,-14.281 h -3.036 l -1.381,3.121 c -0.76,1.716 -1.745,4.05 -2.191,5.187 l -0.81,2.066 -1.882,-4.345 c -1.036,-2.391 -2.051,-4.751 -2.257,-5.247 l -0.374,-0.9 h -3.067 v 14.4 h 1.92 z"
   style="fill:#31406f;fill-rule:nonzero"
   id="path23" />
            <path
   d="m 401.273,429.981 c 0.603,-0.759 2.305,-3.18 3.785,-5.38 l 2.688,-4 0.129,10.761 h 1.918 l -0.127,-14.281 -0.86,-0.072 c -0.861,-0.073 -0.861,-0.072 -2.799,2.999 -1.066,1.689 -2.785,4.286 -3.818,5.771 l -1.881,2.698 -0.129,-11.517 h -1.912 v 14.4 h 0.957 c 0.877,0 1.047,-0.114 2.052,-1.38 z"
   style="fill:#31406f;fill-rule:nonzero"
   id="path24" />
            <path
   d="m 456.322,430.941 c 1.277,-0.651 1.781,-1.522 1.892,-3.271 0.121,-1.901 -0.34,-2.98 -1.582,-3.7 -0.573,-0.332 -0.738,-0.52 -0.462,-0.523 0.237,-0.003 0.696,-0.271 1.02,-0.595 0.513,-0.512 0.589,-0.806 0.589,-2.261 0,-3.132 -1.021,-3.629 -7.452,-3.629 H 446.5 v 14.4 h 4.501 c 3.81,0 4.626,-0.065 5.324,-0.42 z"
   style="fill:#31406f;fill-rule:nonzero"
   id="path25" />
            <path
   d="m 448.419,427.179 v -2.538 h 3.251 c 3.133,0 3.272,0.023 3.841,0.589 0.77,0.77 0.843,2.883 0.131,3.764 -0.436,0.54 -0.621,0.571 -3.841,0.645 l -3.381,0.078 z"
   style="fill:#ffffff;fill-rule:nonzero"
   id="path26" />
            <path
   d="m 448.419,420.801 v -1.92 h 3.24 c 2.979,0 3.28,0.041 3.748,0.508 0.416,0.417 0.485,0.706 0.384,1.606 -0.182,1.614 -0.455,1.726 -4.178,1.726 h -3.195 z"
   style="fill:#ffffff;fill-rule:nonzero"
   id="path27" />
            <path
   d="m 479.147,431.362 v -6.961 h 7.679 v 6.959 h 1.92 v -14.4 h -1.92 v 5.76 h -7.679 v -5.788 l -1.8,0.149 -0.127,14.281 z"
   style="fill:#31406f;fill-rule:nonzero"
   id="path28" />
            <path
   d="m 497.359,428.077 c 1.269,-1.741 2.928,-4.165 3.685,-5.383 l 1.38,-2.217 v 10.885 h 1.92 v -14.4 l -0.9,0.002 c -0.891,0.002 -0.918,0.031 -2.62,2.82 -0.946,1.549 -2.62,4.107 -3.719,5.683 l -2,2.866 -0.24,-11.253 h -1.92 l -0.063,6.837 c -0.035,3.761 -0.009,6.979 0.057,7.154 0.081,0.21 0.458,0.292 1.118,0.243 0.979,-0.072 1.037,-0.129 3.303,-3.24 z"
   style="fill:#31406f;fill-rule:nonzero"
   id="path29" />
            <path
   d="m 510.628,429.386 c 1.193,-2.291 2.433,-3.642 3.549,-3.866 0.433,-0.087 1.476,-0.158 2.318,-0.158 h 1.53 v 6.001 h 1.92 v -14.454 l -4.38,0.088 c -4.889,0.098 -5.524,0.278 -6.599,1.874 -0.71,1.054 -0.756,3.376 -0.088,4.47 0.485,0.795 1.791,1.54 2.704,1.542 0.525,0.001 0.512,0.032 -0.192,0.462 -0.896,0.545 -1.856,1.89 -3.056,4.277 l -0.875,1.74 h 2.142 z"
   style="fill:#31406f;fill-rule:nonzero"
   id="path30" />
            <path
   d="m 511.656,423.454 c -1.044,-0.424 -1.465,-1.669 -1.066,-3.153 0.343,-1.275 0.799,-1.42 4.45,-1.42 h 2.985 v 4.799 l -2.939,-0.014 c -1.617,-0.009 -3.161,-0.104 -3.427,-0.213 z"
   style="fill:#ffffff;fill-rule:nonzero"
   id="path31" />
        </g>
        <g
   transform="matrix(0.999681,0,0,0.999806,1.56504,0.0586508)"
   id="g37">
            <path
   d="m 285.497,395.602 c 17.821,-1.69 29.48,-14.054 32.655,-34.668 0.857,-5.533 1.298,-17.943 1.398,-39.316 0.061,-13.184 0.025,-15.098 -0.29,-15.296 -0.584,-0.369 -26.694,-0.307 -27.182,0.065 -0.348,0.267 -0.369,0.674 -0.181,3.66 0.474,7.546 0.768,17.609 0.669,22.921 -0.094,5.045 -0.16,5.791 -0.631,7.081 -1.249,3.424 -3.458,5.394 -6.046,5.397 -2.227,0.003 -3.75,-1.295 -4.825,-4.113 -0.511,-1.342 -0.554,-1.911 -1.145,-15.205 -0.271,-6.098 -0.634,-7.903 -2.261,-11.279 -1.974,-4.094 -5.128,-7.243 -9.156,-9.136 -3.215,-1.511 -4.958,-1.893 -8.64,-1.895 -3.677,-10e-4 -5.21,0.341 -8.399,1.878 -4.3,2.069 -8.008,5.879 -7.759,7.973 0.063,0.53 0.406,0.831 1.858,1.634 3.345,1.85 5.216,4.439 6.367,8.815 0.756,2.875 1.013,5.012 1.441,11.983 0.374,6.091 0.741,8.373 1.821,11.332 3.325,9.108 11.593,14.928 21.132,14.868 5.723,-0.036 10.76,-2.179 14.819,-6.304 l 1.657,-1.683 0.151,0.757 c 0.306,1.526 0.158,12.778 -0.205,15.703 -0.817,6.574 -2.7,10.506 -5.741,11.994 -3.557,1.74 -7.089,0.593 -8.787,-2.855 -1.228,-2.494 -1.217,-5.057 0.038,-9.399 0.389,-1.343 0.107,-2.21 -1.071,-3.3 -2.925,-2.704 -8.113,-3.878 -12.832,-2.905 -6.86,1.414 -10.735,6.48 -10.273,13.427 0.46,6.889 4.147,12.167 10.553,15.118 2.991,1.376 7.492,2.503 11.311,2.83 2.204,0.189 7.137,0.146 9.552,-0.083 z"
   style="fill:#31406f;fill-rule:nonzero"
   id="path32" />
            <path
   d="m 233.254,394.391 c 5.432,-1.365 9.888,-5.95 11.285,-11.61 0.525,-2.128 0.29,-2.937 -1.001,-3.439 -1.73,-0.671 -4.09,-2.36 -5.953,-4.26 -3.903,-3.98 -6.709,-8.445 -11.917,-18.953 -2.223,-4.487 -4.575,-8.969 -5.227,-9.961 -1.414,-2.153 -3.517,-4.274 -5.079,-5.125 -1.354,-0.736 -3.595,-1.355 -4.91,-1.355 h -0.945 l 0.148,-3.3 c 0.232,-5.173 1.474,-9.499 3.37,-11.741 0.99,-1.17 2.576,-1.84 4.026,-1.701 2.254,0.216 3.05,1.363 3.072,4.436 0.016,1.981 0.188,2.19 2.313,2.813 4.555,1.337 10.562,0.901 14.131,-1.025 4.212,-2.273 6.857,-7.143 6.879,-12.668 0.014,-3.274 -0.592,-5.261 -2.356,-7.736 -1.862,-2.609 -4.805,-4.43 -8.64,-5.349 -2.897,-0.693 -7.49,-0.539 -10.985,0.368 -7.92,2.056 -14.468,7.773 -18.343,16.013 -2.515,5.349 -3.838,11.013 -4.24,18.15 -0.155,2.74 -0.201,2.951 -0.675,3.05 -1.567,0.327 -2.908,0.569 -2.94,0.531 -0.019,-0.023 0.111,-4.524 0.29,-10.004 0.346,-10.627 0.261,-12.755 -0.638,-16.081 -0.834,-3.084 -2.019,-5.164 -4.176,-7.338 -3.016,-3.039 -6.094,-4.454 -10.581,-4.862 -4.057,-0.369 -7.302,0.22 -11.106,2.014 -3.83,1.807 -6.421,3.949 -7.526,6.228 -0.501,1.031 -0.504,1.078 -0.079,1.547 0.24,0.266 0.99,0.795 1.664,1.176 2.617,1.478 4.314,4.136 5.184,8.133 0.466,2.131 0.48,3.155 0.498,35.858 0.013,23.088 0.098,33.761 0.271,33.988 0.365,0.44 26.419,0.443 26.779,0.003 0.168,-0.206 0.109,-6.081 -0.188,-18.661 -0.262,-11.12 -0.346,-18.451 -0.213,-18.592 0.121,-0.128 1.107,-0.236 2.192,-0.24 l 1.973,-0.009 0.191,1.44 c 0.418,3.144 1.697,9.765 2.457,12.719 2.671,10.392 6.766,17.717 12.24,21.895 1.735,1.324 5.193,3.005 7.288,3.54 3.441,0.882 8.209,0.927 11.469,0.107 z"
   style="fill:#31406f;fill-rule:nonzero"
   id="path33" />
            <path
   d="m 369.119,394.518 c 17.691,-2.309 28.253,-12.58 29.339,-28.545 0.47,-6.891 -1.085,-12.622 -4.763,-17.555 -4.765,-6.389 -12.557,-10.547 -22.518,-12.01 -4.541,-0.668 -14.936,-0.487 -17.651,0.306 -0.392,0.114 -0.42,-0.249 -0.42,-5.32 v -5.443 l 0.54,0.132 c 0.297,0.073 2.538,0.376 4.98,0.673 5.907,0.719 16.407,0.797 19.851,0.148 4.38,-0.826 7.764,-2.585 10.443,-5.426 2.837,-3.007 3.96,-6.273 3.713,-10.811 -0.13,-2.422 -0.396,-3.83 -0.859,-4.55 -0.235,-0.366 -1.713,-0.543 -9.147,-1.094 -16.512,-1.224 -35.632,-1.096 -52.328,0.35 -1.65,0.143 -3.242,0.359 -3.54,0.481 l -0.54,0.22 0.001,29.112 c 0.002,24.225 0.06,29.48 0.35,31.379 2.265,14.828 11.713,24.925 25.929,27.715 4.558,0.894 10.885,0.984 16.611,0.237 z"
   style="fill:#31406f;fill-rule:nonzero"
   id="path34" />
            <path
   d="m 359.906,379.903 c -3.214,-1.005 -5.519,-4.008 -6.417,-8.357 -0.308,-1.491 -0.38,-3.585 -0.38,-11.069 v -9.23 l 1.62,-0.199 c 2.392,-0.293 6.471,-0.219 7.98,0.146 3.472,0.84 6.417,2.993 7.897,5.768 1.317,2.472 1.771,4.689 1.771,8.646 0,2.813 -0.099,3.847 -0.518,5.4 -1.167,4.323 -3.2,7.268 -5.91,8.555 -1.203,0.572 -1.737,0.682 -3.24,0.669 -0.99,-0.009 -2.251,-0.157 -2.803,-0.329 z"
   style="fill:#ffffff;fill-rule:nonzero"
   id="path35" />
            <path
   d="m 531.601,394.022 c 4.737,-1.371 9.737,-4.872 11.092,-7.767 0.694,-1.482 0.589,-1.745 -1.101,-2.726 -3.722,-2.161 -5.528,-5.964 -6.089,-12.827 -0.23,-2.818 -0.801,-43.029 -0.613,-43.2 0.045,-0.045 1.793,0.048 3.883,0.207 9.122,0.695 14.522,-0.534 18.116,-4.127 1.521,-1.52 2.844,-3.963 3.487,-6.446 0.79,-3.045 0.314,-10.429 -0.741,-11.484 -0.283,-0.282 -1.23,-0.338 -5.103,-0.301 -8.339,0.08 -18.496,-0.431 -31.634,-1.59 -5.692,-0.503 -8.657,-0.637 -14.159,-0.644 -6.843,-0.008 -7.002,0.003 -9.355,0.646 -3.084,0.842 -6.78,2.664 -8.793,4.332 -1.887,1.566 -3.622,4.064 -4.498,6.48 -0.561,1.544 -0.626,2.069 -0.63,5.082 -0.003,2.492 0.11,3.807 0.437,5.085 0.714,2.785 0.421,2.662 4.87,2.039 4.757,-0.666 7.855,-0.925 13.626,-1.137 l 4.539,-0.167 -0.162,13.652 c -0.088,7.508 -0.163,19.428 -0.165,26.489 -0.003,11.75 0.034,13.025 0.455,15.015 1.123,5.304 3.753,9.264 7.773,11.696 4.045,2.45 9.873,3.121 14.768,1.705 z"
   style="fill:#31406f;fill-rule:nonzero"
   id="path36" />
            <path
   d="m 432.587,392.187 c 0.546,-0.422 3.54,-6.066 10.655,-20.1 8.272,-16.308 13.105,-25.705 13.181,-25.626 0.035,0.036 -0.189,2.496 -0.499,5.466 -0.467,4.493 -0.605,7.718 -0.815,19.199 -0.321,17.438 -0.344,20.786 -0.148,21.104 0.196,0.316 25.282,0.353 25.781,0.038 0.281,-0.178 0.305,-6.749 0.16,-43.03 -0.156,-38.919 -0.206,-42.831 -0.557,-43.115 -0.296,-0.23 -2.968,-0.3 -11.475,-0.3 -10.221,0 -11.123,0.033 -11.557,0.42 -0.258,0.232 -5.85,11.569 -12.43,25.198 -6.579,13.626 -12.001,24.738 -12.047,24.689 -0.047,-0.047 0.141,-2.182 0.418,-4.745 0.469,-4.325 0.498,-5.672 0.409,-18.93 -0.083,-12.288 -0.152,-14.502 -0.497,-15.922 -1.553,-6.398 -5.374,-10.72 -11.075,-12.532 -2.304,-0.732 -5.536,-1.043 -8.172,-0.787 -5.136,0.498 -11.361,3.719 -13.816,7.146 -1.455,2.031 -1.301,2.612 1.044,3.951 2.928,1.672 4.524,4.527 5.337,9.553 0.312,1.923 0.364,6.925 0.364,35.263 10e-4,18.162 0.073,33.081 0.161,33.194 0.089,0.088 5.792,0.16 12.674,0.16 9.644,0 12.603,-0.069 12.903,-0.3 z"
   style="fill:#31406f;fill-rule:nonzero"
   id="path37" />
        </g>
    </g>
    <g
   transform="matrix(1.17081,0,0,1.17081,-53.492772,-352.61924)"
   id="g47">
        <path
   d="m 98.932,417.872 c 0.462,-0.291 1.218,-0.707 1.68,-0.925 0.462,-0.217 10.559,-5.992 22.439,-12.829 11.88,-6.84 22.195,-12.771 22.921,-13.179 1.72,-0.967 2.509,-2.355 2.26,-3.977 -0.092,-0.594 -0.203,-13.317 -0.247,-28.275 -0.014,-4.514 -0.028,-8.339 -0.044,-11.57 -0.062,-12.093 -0.153,-15.867 -0.343,-16.261 -0.168,-0.349 -0.813,-1.017 -1.432,-1.485 -0.901,-0.679 -41.386,-24.094 -46.12,-26.676 -2.629,-1.434 -2.785,-1.48 -3.926,-1.161 -0.575,0.161 -1.102,0.383 -1.17,0.494 -0.068,0.11 -0.588,0.405 -1.156,0.656 -1.301,0.576 -43.2,24.628 -44.22,25.393 -0.42,0.311 -0.864,0.565 -0.986,0.565 -0.122,0 -0.719,0.38 -1.328,0.845 -0.762,0.581 -1.187,1.123 -1.366,1.74 -0.181,0.626 -0.238,9.382 -0.188,29.14 0.071,28.122 0.074,28.244 0.568,28.913 0.273,0.373 1.083,1.07 1.8,1.55 1.006,0.673 42.378,24.511 46.914,27.023 1.272,0.707 2.851,0.712 3.96,0.014 z"
   style="fill:#31406f;fill-rule:nonzero"
   id="path38" />
        <path
   d="m 75.059,397.862 c -9.896,-5.745 -18.023,-10.474 -18.057,-10.511 -0.035,-0.035 3.606,-2.183 8.09,-4.773 l 8.155,-4.711 20.047,11.681 0.063,9.386 c 0.034,5.162 -0.02,9.383 -0.12,9.38 -0.101,-0.003 -8.28,-4.709 -18.176,-10.454 z"
   style="fill:#ffffff;fill-rule:nonzero"
   id="path39" />
        <path
   d="m 100.67,398.962 0.062,-9.414 20.05,-11.684 16.305,9.434 -0.658,0.409 c -1.389,0.863 -35.178,20.423 -35.49,20.542 -0.27,0.104 -0.314,-1.458 -0.261,-9.289 z"
   style="fill:#ffffff;fill-rule:nonzero"
   id="path40" />
        <path
   d="m 84.951,376.223 -8.101,-4.697 v -9.323 c 0,-7.308 0.065,-9.318 0.3,-9.304 0.165,0.012 3.864,2.091 8.22,4.621 l 7.92,4.6 0.063,9.42 c 0.035,5.179 -0.019,9.408 -0.12,9.397 -0.1,-0.012 -3.827,-2.135 -8.283,-4.717 z"
   style="fill:#ffffff;fill-rule:nonzero"
   id="path41" />
        <path
   d="m 100.372,371.554 v -9.442 l 8.008,-4.615 c 4.405,-2.538 8.079,-4.615 8.164,-4.615 0.085,0 0.126,4.218 0.091,9.377 l -0.062,9.377 -6.721,3.895 c -3.697,2.142 -7.342,4.249 -8.102,4.683 l -1.38,0.787 z"
   style="fill:#ffffff;fill-rule:nonzero"
   id="path42" />
        <path
   d="m 132.29,376.291 -8.039,-4.655 v -23.108 l 16.081,-9.3 0.063,10.428 c 0.034,5.735 0.034,15.123 0,20.861 l -0.063,10.431 z"
   style="fill:#ffffff;fill-rule:nonzero"
   id="path43" />
        <path
   d="m 53.09,359.722 c 0,-19.72 0.022,-20.803 0.42,-20.653 0.231,0.087 3.903,2.166 8.161,4.62 l 7.739,4.462 v 23.117 l -7.739,4.476 c -4.258,2.461 -7.928,4.546 -8.161,4.634 -0.398,0.151 -0.42,-0.931 -0.42,-20.653 z"
   style="fill:#ffffff;fill-rule:nonzero"
   id="path44" />
        <path
   d="m 88.977,350.813 c -4.224,-2.447 -7.824,-4.53 -7.997,-4.629 -0.203,-0.115 2.602,-1.866 7.861,-4.904 l 8.178,-4.725 8.166,4.719 c 4.49,2.595 8.136,4.743 8.102,4.771 -0.573,0.46 -16.081,9.235 -16.308,9.227 -0.175,-0.006 -3.773,-2.013 -7.997,-4.459 z"
   style="fill:#ffffff;fill-rule:nonzero"
   id="path45" />
        <path
   d="m 65.217,337.286 c -4.354,-2.51 -7.92,-4.669 -7.92,-4.799 0,-0.238 34.923,-20.608 35.688,-20.823 0.395,-0.11 0.42,0.438 0.42,9.113 0,8.495 -0.033,9.258 -0.42,9.59 -0.441,0.376 -18.907,11.114 -19.514,11.347 -0.199,0.076 -3.764,-1.833 -8.268,-4.428 z"
   style="fill:#ffffff;fill-rule:nonzero"
   id="path46" />
        <path
   d="m 111.025,336.245 c -5.307,-3.082 -9.814,-5.741 -10.021,-5.911 -0.326,-0.27 -0.374,-1.481 -0.374,-9.55 0,-8.682 0.026,-9.232 0.421,-9.122 0.616,0.172 35.688,20.552 35.773,20.784 0.058,0.171 -14.814,8.895 -15.786,9.261 -0.212,0.08 -4.335,-2.172 -10.007,-5.465 z"
   style="fill:#ffffff;fill-rule:nonzero"
   id="path47" />
    </g>
</svg>
