<?xml version="1.0" encoding="UTF-8" standalone="no"?>
<!DOCTYPE svg PUBLIC "-//W3C//DTD SVG 1.1//EN" "http://www.w3.org/Graphics/SVG/1.1/DTD/svg11.dtd">
<svg width="100%" height="100%" viewBox="0 0 526 138" version="1.1" xmlns="http://www.w3.org/2000/svg" xmlns:xlink="http://www.w3.org/1999/xlink" xml:space="preserve" xmlns:serif="http://www.serif.com/" style="fill-rule:evenodd;clip-rule:evenodd;stroke-linejoin:round;stroke-miterlimit:2;">
    <g id="g38" transform="matrix(1,0,0,1,-36.2916,-302.985)">
        <g id="g31" transform="matrix(1.25725,0,0,1.25728,-91.5448,-108.874)">
            <path id="path1" d="M235.644,433.701C236.478,431.952 237.759,429.009 238.49,427.161C239.829,423.78 242.016,417.574 242.016,417.158C242.016,417.034 241.57,416.967 241.024,417.007L240.032,417.081L238.91,420.44C236.77,426.849 235.296,430.299 235.296,428.893C235.296,428.395 233.282,422.334 232.189,419.539L231.179,416.959L230.092,416.959C229.313,416.959 229.041,417.044 229.133,417.258C230.784,421.122 232.222,425.218 234.079,431.358C234.217,431.813 234.009,432.5 233.218,434.207C232.645,435.444 232.176,436.551 232.176,436.667C232.176,436.782 232.616,436.877 233.153,436.877L234.129,436.877L235.644,433.701Z" style="fill:rgb(49,64,111);fill-rule:nonzero;"/>
            <path id="path2" d="M286.356,433.821L286.288,436.761L284.488,436.91L284.488,417.7L285.748,417.313C287.435,416.795 291.512,416.584 292.84,416.946C294.248,417.33 295.638,418.638 296.12,420.033C297.08,422.811 296.789,427.533 295.536,429.509C294.516,431.12 293.108,431.721 290.369,431.713C288.792,431.709 288.001,431.596 287.44,431.294C287.018,431.067 286.616,430.881 286.548,430.881C286.479,430.881 286.393,432.204 286.356,433.821ZM288.026,429.591C289.242,430.044 292.164,429.895 293.014,429.337C294.132,428.606 294.439,427.492 294.444,424.159C294.453,419.236 293.821,418.528 289.552,418.679C288.153,418.729 286.874,418.854 286.709,418.959C286.485,419.1 286.409,420.362 286.409,423.905C286.409,429.155 286.355,428.968 288.026,429.591Z" style="fill:rgb(49,64,111);"/>
            <path id="path4" d="M330.263,433.821L330.195,436.762L329.293,436.837C328.712,436.885 328.348,436.8 328.27,436.596C328.204,436.421 328.178,432.123 328.212,427.041L328.275,417.803L329.595,417.359C331.534,416.708 335.426,416.548 336.957,417.057C339.034,417.745 340.007,419.197 340.438,422.241C340.959,425.923 340.02,429.61 338.266,430.768C336.556,431.896 333.009,432.138 331.281,431.244C330.895,431.044 330.523,430.881 330.454,430.881C330.386,430.881 330.3,432.204 330.263,433.821ZM331.515,429.399L331.517,429.401C332.434,429.875 332.868,429.944 334.4,429.864C335.584,429.802 336.424,429.625 336.847,429.347C337.895,428.661 338.359,427.065 338.353,424.163C338.349,421.374 338.052,420.204 337.131,419.338C336.559,418.802 336.336,418.763 333.837,418.763C332.362,418.763 330.964,418.841 330.73,418.937C330.34,419.096 330.311,419.513 330.37,423.977L330.435,428.841L331.515,429.399Z" style="fill:rgb(49,64,111);"/>
            <path id="path6" d="M415.761,433.792L415.76,436.88L414.912,436.88C414.446,436.88 414.013,436.745 413.949,436.58C413.885,436.412 413.862,432.121 413.897,427.038L413.96,417.8L415.28,417.35C416.978,416.77 421.091,416.545 422.386,416.96C425.366,417.915 426.586,420.931 426.069,426.062C425.846,428.274 425.252,429.581 424.002,430.612C422.395,431.937 418.79,432.201 416.666,431.15L415.761,430.703L415.761,433.792ZM417.47,429.591L417.469,429.592C418.628,430.011 420.871,429.985 421.984,429.54C423.521,428.925 423.961,427.731 423.956,424.194C423.951,421.14 423.694,420.104 422.728,419.242C422.291,418.851 421.776,418.746 419.981,418.68C418.767,418.635 417.32,418.72 416.767,418.869L415.761,419.14L415.761,423.664C415.761,428.717 415.843,429.003 417.47,429.591Z" style="fill:rgb(49,64,111);"/>
            <path id="path8" d="M253.656,431.25L253.654,431.25C252.574,431.702 249.682,431.916 248.566,431.627C245.451,430.819 244.202,427.82 244.467,421.774C244.782,414.58 246.06,412.793 251.341,412.15C252.573,412 254.014,411.725 254.542,411.539C255.878,411.068 255.921,411.086 255.921,412.134L255.921,413.067L254.421,413.453C253.595,413.664 252.079,413.946 251.05,414.078C250.022,414.21 248.862,414.483 248.473,414.685C247.643,415.115 246.929,416.404 246.682,417.922L246.506,419.002L247.073,418.492C247.978,417.68 248.622,417.433 250.237,417.282C252.388,417.082 254.167,417.636 255.263,418.849C256.495,420.212 256.759,421.213 256.76,424.521C256.76,428.67 256.029,430.259 253.656,431.25ZM248.528,429.532L248.53,429.532C249.652,430.104 252.302,429.968 253.215,429.292C254.387,428.425 254.603,427.682 254.601,424.521C254.6,422.221 254.512,421.464 254.163,420.76C253.528,419.483 252.439,419.035 250.296,419.173C247.228,419.368 246.682,420.159 246.682,424.4C246.682,426.783 246.754,427.296 247.208,428.144C247.509,428.705 248.075,429.301 248.528,429.532Z" style="fill:rgb(49,64,111);"/>
            <path id="path10" d="M308.963,431.577C306.508,432.103 303.777,431.738 302.301,430.687C300.773,429.598 299.917,426.54 300.17,423.07C300.359,420.476 300.865,419.09 301.997,418.067C303.145,417.029 304.215,416.723 306.7,416.722C310.849,416.719 312.541,418.193 313.049,422.246C313.341,424.574 313.02,427.578 312.336,428.919C311.638,430.29 310.393,431.27 308.963,431.577ZM304.47,429.656C305.695,430.011 307.907,429.953 308.941,429.54C310.455,428.933 310.932,427.689 310.941,424.318C310.949,421.331 310.681,420.191 309.77,419.335C309.231,418.829 308.888,418.75 306.927,418.677C303.333,418.544 302.554,419.298 302.312,423.151C302.08,426.851 302.856,429.189 304.47,429.656Z" style="fill:rgb(49,64,111);"/>
            <path id="path12" d="M352.432,431.501L352.431,431.503C349.571,432.055 346.626,431.81 345.432,430.92C344.303,430.078 343.879,429.011 343.887,427.042C343.896,425.123 344.225,424.202 345.229,423.292C346.23,422.385 347.432,422.166 350.652,422.305L353.625,422.433L353.458,421.438C353.033,418.902 352.421,418.542 348.815,418.71C347.416,418.775 346.043,418.904 345.762,418.995C345.341,419.134 345.207,419.03 344.985,418.395C344.838,417.973 344.771,417.541 344.835,417.436C345.071,417.057 348.285,416.661 350.275,416.765C352.839,416.9 353.96,417.43 354.794,418.903C355.376,419.931 355.396,420.121 355.474,425.3L355.554,430.638L354.874,430.9C354.499,431.043 353.401,431.314 352.432,431.501ZM347.188,429.679L347.189,429.678C347.946,429.984 351.277,429.968 352.527,429.653L353.593,429.384L353.593,426.907C353.593,425.417 353.491,424.367 353.338,424.272C352.811,423.946 348.407,423.852 347.513,424.148C346.379,424.522 346.065,425.134 346.079,426.94C346.093,428.575 346.414,429.367 347.188,429.679Z" style="fill:rgb(49,64,111);"/>
            <path id="path14" d="M439.598,431.167L439.595,431.169C438.911,431.472 437.819,431.685 436.673,431.739C431.406,431.986 429.451,429.625 429.731,423.349C429.826,421.192 429.939,420.649 430.542,419.443C431.088,418.35 431.48,417.909 432.323,417.441C433.301,416.898 433.668,416.841 436.164,416.841C438.661,416.841 439.028,416.899 440.004,417.441C440.847,417.909 441.239,418.349 441.785,419.443C442.388,420.65 442.501,421.193 442.597,423.349C442.792,427.757 441.871,430.161 439.598,431.167ZM433.773,429.516L433.774,429.515C434.427,429.856 435.003,429.93 436.446,429.856C439.804,429.686 440.366,428.869 440.366,424.161C440.366,419.376 439.807,418.642 436.165,418.642C432.523,418.642 431.964,419.376 431.964,424.161C431.964,427.853 432.259,428.725 433.773,429.516Z" style="fill:rgb(49,64,111);"/>
            <path id="path16" d="M470.056,431.501L470.056,431.503C466.056,432.275 463.103,431.604 462.051,429.683C461.675,429 461.604,428.456 461.663,426.76C461.745,424.428 462.097,423.702 463.56,422.846C464.518,422.284 468.489,422.044 470.224,422.443L471.272,422.684L471.11,421.443C470.915,419.962 470.46,419.189 469.583,418.85C468.911,418.59 464.298,418.696 463.401,418.991C462.987,419.127 462.863,419.013 462.643,418.298C462.499,417.827 462.451,417.398 462.538,417.345C462.966,417.081 465.749,416.721 467.36,416.723C469.562,416.724 470.727,417.023 471.686,417.829C472.89,418.844 473.137,420.193 473.137,425.771L473.137,430.653L472.477,430.907C472.114,431.047 471.025,431.314 470.056,431.501ZM464.812,429.679C465.569,429.985 468.9,429.968 470.15,429.653L471.216,429.385L471.216,424.229L469.956,424.077C466.777,423.695 464.484,424.009 464.012,424.891C463.696,425.478 463.711,428.391 464.032,428.99C464.172,429.253 464.524,429.563 464.812,429.679Z" style="fill:rgb(49,64,111);"/>
            <path id="path18" d="M204.11,427.865L204.11,424.37L204.65,424.537C206.594,425.138 208.403,426.79 210.217,429.622C211.327,431.355 211.336,431.362 212.4,431.362C212.988,431.362 213.468,431.26 213.468,431.135C213.468,431.01 212.718,429.786 211.801,428.414C210.148,425.941 208.7,424.386 207.58,423.876C207.012,423.617 207.067,423.54 209.993,420.52C211.64,418.82 212.986,417.325 212.986,417.195C212.986,417.067 212.528,416.96 211.967,416.958C210.97,416.955 210.87,417.031 207.587,420.376L204.228,423.801L204.095,416.961L202.188,416.961L202.188,431.361L204.108,431.361L204.11,427.865Z" style="fill:rgb(49,64,111);fill-rule:nonzero;"/>
            <path id="path19" d="M217.166,430.083C217.839,427.767 218.714,423.832 218.99,421.882C219.462,418.537 219.131,418.883 221.873,418.883L224.268,418.883L224.268,431.364L226.188,431.364L226.188,416.964L221.868,416.964C217.914,416.964 217.548,417 217.545,417.384C217.531,420.366 216.027,427.685 214.737,431.047C214.648,431.281 214.901,431.364 215.704,431.364L216.793,431.364L217.166,430.083Z" style="fill:rgb(49,64,111);fill-rule:nonzero;"/>
            <path id="path20" d="M270.826,431.365L270.826,418.883L278.267,418.883L278.267,431.364L280.187,431.364L280.187,416.955L268.786,417.084L268.659,431.365L270.826,431.365Z" style="fill:rgb(49,64,111);fill-rule:nonzero;"/>
            <path id="path21" d="M319.071,425.128L319.071,418.894L326.152,418.762L326.152,417.082L317.033,417.082L316.906,431.362L319.073,431.362L319.071,425.128Z" style="fill:rgb(49,64,111);fill-rule:nonzero;"/>
            <path id="path22" d="M361.563,425.181L361.58,419.002L362.076,420.082C362.349,420.676 363.409,423.214 364.433,425.723L366.294,430.284L368.102,430.284L369.828,426.083C370.777,423.773 371.831,421.289 372.17,420.564L372.787,419.244L372.826,431.364L374.746,431.364L374.746,416.964L371.835,416.964L370.908,418.944C370.397,420.034 369.384,422.383 368.655,424.166L367.329,427.406L366.778,426.101C366.475,425.383 365.469,423.062 364.544,420.941L362.862,417.086L359.746,417.086L359.619,431.367L361.546,431.367L361.563,425.181Z" style="fill:rgb(49,64,111);fill-rule:nonzero;"/>
            <path id="path23" d="M380.989,425.301L380.991,419.241L381.548,420.441C381.854,421.101 382.902,423.613 383.877,426.019L385.649,430.399L387.37,430.399L388.993,426.379C389.886,424.168 390.978,421.603 391.42,420.679L392.225,418.999L392.265,431.358L394.191,431.358L394.065,417.077L391.029,417.077L389.648,420.198C388.888,421.914 387.903,424.248 387.457,425.385L386.647,427.451L384.765,423.106C383.729,420.715 382.714,418.355 382.508,417.859L382.134,416.959L379.067,416.959L379.067,431.359L380.987,431.359L380.989,425.301Z" style="fill:rgb(49,64,111);fill-rule:nonzero;"/>
            <path id="path24" d="M401.273,429.981C401.876,429.222 403.578,426.801 405.058,424.601L407.746,420.601L407.875,431.362L409.793,431.362L409.666,417.081L408.806,417.009C407.945,416.936 407.945,416.937 406.007,420.008C404.941,421.697 403.222,424.294 402.189,425.779L400.308,428.477L400.179,416.96L398.267,416.96L398.267,431.36L399.224,431.36C400.101,431.36 400.271,431.246 401.276,429.98L401.273,429.981Z" style="fill:rgb(49,64,111);fill-rule:nonzero;"/>
            <path id="path25" d="M456.322,430.941L456.325,430.942C455.627,431.297 454.811,431.362 451.001,431.362L446.5,431.362L446.5,416.962L450.327,416.962C456.758,416.962 457.779,417.459 457.779,420.591C457.779,422.046 457.703,422.34 457.19,422.852C456.866,423.176 456.407,423.444 456.17,423.447C455.894,423.45 456.059,423.638 456.632,423.97C457.874,424.69 458.335,425.769 458.214,427.67C458.103,429.419 457.599,430.29 456.322,430.941ZM448.419,420.801L448.418,422.721L451.613,422.721C455.336,422.721 455.609,422.609 455.791,420.995C455.892,420.095 455.823,419.806 455.407,419.389C454.939,418.922 454.638,418.881 451.659,418.881L448.419,418.881L448.419,420.801ZM448.419,427.179L448.42,429.717L451.801,429.639C455.021,429.565 455.206,429.534 455.642,428.994C456.354,428.113 456.281,426 455.511,425.23C454.942,424.664 454.803,424.641 451.67,424.641L448.419,424.641L448.419,427.179Z" style="fill:rgb(49,64,111);"/>
            <path id="path28" d="M479.147,431.362L479.147,424.401L486.826,424.401L486.826,431.36L488.746,431.36L488.746,416.96L486.826,416.96L486.826,422.72L479.147,422.72L479.147,416.932L477.347,417.081L477.22,431.362L479.147,431.362Z" style="fill:rgb(49,64,111);fill-rule:nonzero;"/>
            <path id="path29" d="M497.359,428.077C498.628,426.336 500.287,423.912 501.044,422.694L502.424,420.477L502.424,431.362L504.344,431.362L504.344,416.962L503.444,416.964C502.553,416.966 502.526,416.995 500.824,419.784C499.878,421.333 498.204,423.891 497.105,425.467L495.105,428.333L494.865,417.08L492.945,417.08L492.882,423.917C492.847,427.678 492.873,430.896 492.939,431.071C493.02,431.281 493.397,431.363 494.057,431.314C495.036,431.242 495.094,431.185 497.36,428.074L497.359,428.077Z" style="fill:rgb(49,64,111);fill-rule:nonzero;"/>
            <path id="path30" d="M510.628,429.386L509.601,431.362L507.459,431.362L508.334,429.622C509.534,427.235 510.494,425.89 511.39,425.345C512.094,424.915 512.107,424.884 511.582,424.883C510.669,424.881 509.363,424.136 508.878,423.341C508.21,422.247 508.256,419.925 508.966,418.871C510.041,417.275 510.676,417.095 515.565,416.997L519.945,416.909L519.945,431.363L518.025,431.363L518.025,425.362L516.495,425.362C515.653,425.362 514.61,425.433 514.177,425.52C513.061,425.744 511.821,427.095 510.628,429.386ZM511.656,423.454L511.659,423.453C511.925,423.562 513.469,423.657 515.086,423.666L518.025,423.68L518.025,418.881L515.04,418.881C511.389,418.881 510.933,419.026 510.59,420.301C510.191,421.785 510.612,423.03 511.656,423.454Z" style="fill:rgb(49,64,111);"/>
        </g>
        <g id="g37" transform="matrix(0.999681,0,0,0.999806,1.56504,0.0586508)">
            <path id="path32" d="M285.497,395.602C303.318,393.912 314.977,381.548 318.152,360.934C319.009,355.401 319.45,342.991 319.55,321.618C319.611,308.434 319.575,306.52 319.26,306.322C318.676,305.953 292.566,306.015 292.078,306.387C291.73,306.654 291.709,307.061 291.897,310.047C292.371,317.593 292.665,327.656 292.566,332.968C292.472,338.013 292.406,338.759 291.935,340.049C290.686,343.473 288.477,345.443 285.889,345.446C283.662,345.449 282.139,344.151 281.064,341.333C280.553,339.991 280.51,339.422 279.919,326.128C279.648,320.03 279.285,318.225 277.658,314.849C275.684,310.755 272.53,307.606 268.502,305.713C265.287,304.202 263.544,303.82 259.862,303.818C256.185,303.817 254.652,304.159 251.463,305.696C247.163,307.765 243.455,311.575 243.704,313.669C243.767,314.199 244.11,314.5 245.562,315.303C248.907,317.153 250.778,319.742 251.929,324.118C252.685,326.993 252.942,329.13 253.37,336.101C253.744,342.192 254.111,344.474 255.191,347.433C258.516,356.541 266.784,362.361 276.323,362.301C282.046,362.265 287.083,360.122 291.142,355.997L292.799,354.314L292.95,355.071C293.256,356.597 293.108,367.849 292.745,370.774C291.928,377.348 290.045,381.28 287.004,382.768C283.447,384.508 279.915,383.361 278.217,379.913C276.989,377.419 277,374.856 278.255,370.514C278.644,369.171 278.362,368.304 277.184,367.214C274.259,364.51 269.071,363.336 264.352,364.309C257.492,365.723 253.617,370.789 254.079,377.736C254.539,384.625 258.226,389.903 264.632,392.854C267.623,394.23 272.124,395.357 275.943,395.684C278.147,395.873 283.08,395.83 285.495,395.601L285.497,395.602Z" style="fill:rgb(49,64,111);fill-rule:nonzero;"/>
            <path id="path33" d="M233.254,394.391C238.686,393.026 243.142,388.441 244.539,382.781C245.064,380.653 244.829,379.844 243.538,379.342C241.808,378.671 239.448,376.982 237.585,375.082C233.682,371.102 230.876,366.637 225.668,356.129C223.445,351.642 221.093,347.16 220.441,346.168C219.027,344.015 216.924,341.894 215.362,341.043C214.008,340.307 211.767,339.688 210.452,339.688L209.507,339.688L209.655,336.388C209.887,331.215 211.129,326.889 213.025,324.647C214.015,323.477 215.601,322.807 217.051,322.946C219.305,323.162 220.101,324.309 220.123,327.382C220.139,329.363 220.311,329.572 222.436,330.195C226.991,331.532 232.998,331.096 236.567,329.17C240.779,326.897 243.424,322.027 243.446,316.502C243.46,313.228 242.854,311.241 241.09,308.766C239.228,306.157 236.285,304.336 232.45,303.417C229.553,302.724 224.96,302.878 221.465,303.785C213.545,305.841 206.997,311.558 203.122,319.798C200.607,325.147 199.284,330.811 198.882,337.948C198.727,340.688 198.681,340.899 198.207,340.998C196.64,341.325 195.299,341.567 195.267,341.529C195.248,341.506 195.378,337.005 195.557,331.525C195.903,320.898 195.818,318.77 194.919,315.444C194.085,312.36 192.9,310.28 190.743,308.106C187.727,305.067 184.649,303.652 180.162,303.244C176.105,302.875 172.86,303.464 169.056,305.258C165.226,307.065 162.635,309.207 161.53,311.486C161.029,312.517 161.026,312.564 161.451,313.033C161.691,313.299 162.441,313.828 163.115,314.209C165.732,315.687 167.429,318.345 168.299,322.342C168.765,324.473 168.779,325.497 168.797,358.2C168.81,381.288 168.895,391.961 169.068,392.188C169.433,392.628 195.487,392.631 195.847,392.191C196.015,391.985 195.956,386.11 195.659,373.53C195.397,362.41 195.313,355.079 195.446,354.938C195.567,354.81 196.553,354.702 197.638,354.698L199.611,354.689L199.802,356.129C200.22,359.273 201.499,365.894 202.259,368.848C204.93,379.24 209.025,386.565 214.499,390.743C216.234,392.067 219.692,393.748 221.787,394.283C225.228,395.165 229.996,395.21 233.256,394.39L233.254,394.391Z" style="fill:rgb(49,64,111);fill-rule:nonzero;"/>
            <path id="path34" d="M369.119,394.518L369.11,394.517C363.384,395.264 357.057,395.174 352.499,394.28C338.283,391.49 328.835,381.393 326.57,366.565C326.28,364.666 326.222,359.411 326.22,335.186L326.219,306.074L326.759,305.854C327.057,305.732 328.649,305.516 330.299,305.373C346.995,303.927 366.115,303.799 382.627,305.023C390.061,305.574 391.539,305.751 391.774,306.117C392.237,306.837 392.503,308.245 392.633,310.667C392.88,315.205 391.757,318.471 388.92,321.478C386.241,324.319 382.857,326.078 378.477,326.904C375.033,327.553 364.533,327.475 358.626,326.756C356.184,326.459 353.943,326.156 353.646,326.083L353.106,325.951L353.106,331.394C353.106,336.465 353.134,336.828 353.526,336.714C356.241,335.921 366.636,335.74 371.177,336.408C381.138,337.871 388.93,342.029 393.695,348.418C397.373,353.351 398.928,359.082 398.458,365.973C397.372,381.938 386.81,392.209 369.119,394.518ZM359.906,379.903C360.458,380.075 361.719,380.223 362.709,380.232C364.212,380.245 364.746,380.135 365.949,379.563C368.659,378.276 370.692,375.331 371.859,371.008C372.278,369.455 372.377,368.421 372.377,365.608C372.377,361.651 371.923,359.434 370.606,356.962C369.126,354.187 366.181,352.034 362.709,351.194C361.2,350.829 357.121,350.755 354.729,351.048L353.109,351.247L353.109,360.477C353.109,367.961 353.181,370.055 353.489,371.546C354.387,375.895 356.692,378.898 359.906,379.903Z" style="fill:rgb(49,64,111);"/>
            <path id="path36" d="M531.601,394.022C536.338,392.651 541.338,389.15 542.693,386.255C543.387,384.773 543.282,384.51 541.592,383.529C537.87,381.368 536.064,377.565 535.503,370.702C535.273,367.884 534.702,327.673 534.89,327.502C534.935,327.457 536.683,327.55 538.773,327.709C547.895,328.404 553.295,327.175 556.889,323.582C558.41,322.062 559.733,319.619 560.376,317.136C561.166,314.091 560.69,306.707 559.635,305.652C559.352,305.37 558.405,305.314 554.532,305.351C546.193,305.431 536.036,304.92 522.898,303.761C517.206,303.258 514.241,303.124 508.739,303.117C501.896,303.109 501.737,303.12 499.384,303.763C496.3,304.605 492.604,306.427 490.591,308.095C488.704,309.661 486.969,312.159 486.093,314.575C485.532,316.119 485.467,316.644 485.463,319.657C485.46,322.149 485.573,323.464 485.9,324.742C486.614,327.527 486.321,327.404 490.77,326.781C495.527,326.115 498.625,325.856 504.396,325.644L508.935,325.477L508.773,339.129C508.685,346.637 508.61,358.557 508.608,365.618C508.605,377.368 508.642,378.643 509.063,380.633C510.186,385.937 512.816,389.897 516.836,392.329C520.881,394.779 526.709,395.45 531.604,394.034L531.601,394.022Z" style="fill:rgb(49,64,111);fill-rule:nonzero;"/>
            <path id="path37" d="M432.587,392.187C433.133,391.765 436.127,386.121 443.242,372.087C451.514,355.779 456.347,346.382 456.423,346.461C456.458,346.497 456.234,348.957 455.924,351.927C455.457,356.42 455.319,359.645 455.109,371.126C454.788,388.564 454.765,391.912 454.961,392.23C455.157,392.546 480.243,392.583 480.742,392.268C481.023,392.09 481.047,385.519 480.902,349.238C480.746,310.319 480.696,306.407 480.345,306.123C480.049,305.893 477.377,305.823 468.87,305.823C458.649,305.823 457.747,305.856 457.313,306.243C457.055,306.475 451.463,317.812 444.883,331.441C438.304,345.067 432.882,356.179 432.836,356.13C432.789,356.083 432.977,353.948 433.254,351.385C433.723,347.06 433.752,345.713 433.663,332.455C433.58,320.167 433.511,317.953 433.166,316.533C431.613,310.135 427.792,305.813 422.091,304.001C419.787,303.269 416.555,302.958 413.919,303.214C408.783,303.712 402.558,306.933 400.103,310.36C398.648,312.391 398.802,312.972 401.147,314.311C404.075,315.983 405.671,318.838 406.484,323.864C406.796,325.787 406.848,330.789 406.848,359.127C406.849,377.289 406.921,392.208 407.009,392.321C407.098,392.409 412.801,392.481 419.683,392.481C429.327,392.481 432.286,392.412 432.586,392.181L432.587,392.187Z" style="fill:rgb(49,64,111);fill-rule:nonzero;"/>
        </g>
    </g>
    <g id="g47" transform="matrix(1.17081,0,0,1.17081,-53.4928,-352.619)">
        <path id="path38" d="M98.932,417.872L98.948,417.867C97.839,418.565 96.26,418.56 94.988,417.853C90.452,415.341 49.08,391.503 48.074,390.83C47.357,390.35 46.547,389.653 46.274,389.28C45.78,388.611 45.777,388.489 45.706,360.367C45.656,340.609 45.713,331.853 45.894,331.227C46.073,330.61 46.498,330.068 47.26,329.487C47.869,329.022 48.466,328.642 48.588,328.642C48.71,328.642 49.154,328.388 49.574,328.077C50.594,327.312 92.493,303.26 93.794,302.684C94.362,302.433 94.882,302.138 94.95,302.028C95.018,301.917 95.545,301.695 96.12,301.534C97.261,301.215 97.417,301.261 100.046,302.695C104.78,305.277 145.265,328.692 146.166,329.371C146.785,329.839 147.43,330.507 147.598,330.856C147.788,331.25 147.879,335.024 147.941,347.117C147.957,350.348 147.971,354.173 147.985,358.687C148.029,373.645 148.14,386.368 148.232,386.962C148.481,388.584 147.692,389.972 145.972,390.939C145.246,391.347 134.931,397.278 123.051,404.118C111.171,410.955 101.074,416.73 100.612,416.947C100.15,417.165 99.394,417.581 98.932,417.872ZM111.025,336.245L111.031,336.242C116.703,339.535 120.826,341.787 121.038,341.707C122.01,341.341 136.882,332.617 136.824,332.446C136.739,332.214 101.667,311.834 101.051,311.662C100.656,311.552 100.63,312.102 100.63,320.784C100.63,328.853 100.678,330.064 101.004,330.334C101.211,330.504 105.718,333.163 111.025,336.245ZM75.059,397.862L75.061,397.86C84.957,403.605 93.136,408.311 93.237,408.314C93.337,408.317 93.391,404.096 93.357,398.934L93.294,389.548L73.247,377.867L65.092,382.578C60.608,385.168 56.967,387.316 57.002,387.351C57.036,387.388 65.163,392.117 75.059,397.862ZM100.67,398.962L100.678,398.96C100.625,406.791 100.669,408.353 100.939,408.249C101.251,408.13 135.04,388.57 136.429,387.707L137.087,387.298L120.782,377.864L100.732,389.548L100.67,398.962ZM84.951,376.223L84.95,376.22C89.406,378.802 93.133,380.925 93.233,380.937C93.334,380.948 93.388,376.719 93.353,371.54L93.29,362.12L85.37,357.52C81.014,354.99 77.315,352.911 77.15,352.899C76.915,352.885 76.85,354.895 76.85,362.203L76.85,371.526L84.951,376.223ZM100.372,371.554L100.37,381.001L101.75,380.214C102.51,379.78 106.155,377.673 109.852,375.531L116.573,371.636L116.635,362.259C116.67,357.1 116.629,352.882 116.544,352.882C116.459,352.882 112.785,354.959 108.38,357.497L100.372,362.112L100.372,371.554ZM132.29,376.291L140.332,380.948L140.395,370.517C140.429,364.779 140.429,355.391 140.395,349.656L140.332,339.228L124.251,348.528L124.251,371.636L132.29,376.291ZM53.09,359.722L53.09,359.725C53.09,379.447 53.112,380.529 53.51,380.378C53.743,380.29 57.413,378.205 61.671,375.744L69.41,371.268L69.41,348.151L61.671,343.689C57.413,341.235 53.741,339.156 53.51,339.069C53.112,338.919 53.09,340.002 53.09,359.722ZM88.977,350.813L88.982,350.813C93.206,353.259 96.804,355.266 96.979,355.272C97.206,355.28 112.714,346.505 113.287,346.045C113.321,346.017 109.675,343.869 105.185,341.274L97.019,336.555L88.841,341.28C83.582,344.318 80.777,346.069 80.98,346.184C81.153,346.283 84.753,348.366 88.977,350.813ZM65.217,337.286L65.203,337.286C69.707,339.881 73.272,341.79 73.471,341.714C74.078,341.481 92.544,330.743 92.985,330.367C93.372,330.035 93.405,329.272 93.405,320.777C93.405,312.102 93.38,311.554 92.985,311.664C92.22,311.879 57.297,332.249 57.297,332.487C57.297,332.617 60.863,334.776 65.217,337.286Z" style="fill:rgb(49,64,111);"/>
    </g>
</svg>
