<svg width="112.5mm" height="63.76mm" version="1.1" viewBox="0 0 112.5 63.76" xmlns="http://www.w3.org/2000/svg"><g transform="translate(-12.68 -14.24)"><g transform="translate(-10.7 -64.35)"><g transform="matrix(2.009,0,0,2.015,-103.2,-246)" stroke-linecap="round"><g transform="scale(.9961 1.004)" fill-rule="evenodd" stop-color="#000000" stroke-width=".5581" style="paint-order:markers fill stroke" aria-label="FormToMail"><path d="m73.88 176.9h-2.206v2.26h-1.368v-5.674h3.795v1.056h-2.428v1.305h2.206z"/><path d="m74.36 177.1q0-0.6313 0.2455-1.122 0.2455-0.4949 0.7053-0.7598 0.4598-0.265 1.079-0.265 0.9469 0 1.492 0.5884 0.5455 0.5845 0.5455 1.594v0.0468q0 0.9858-0.5494 1.566-0.5455 0.5767-1.481 0.5767-0.9001 0-1.446-0.5377-0.5455-0.5416-0.5884-1.465zm1.313 0.0818q0 0.5845 0.1831 0.8573t0.5416 0.2728q0.7014 0 0.717-1.079v-0.1325q0-1.134-0.7248-1.134-0.6585 0-0.7131 0.9781z"/><path d="m81.56 176.2-0.4325-0.0312q-0.6196 0-0.7949 0.3897v2.669h-1.313v-4.216h1.231l0.04286 0.5416q0.3312-0.6196 0.9235-0.6196 0.2104 0 0.3663 0.0468z"/><path d="m83.27 175 0.04286 0.4949q0.4481-0.5728 1.204-0.5728 0.7988 0 1.079 0.6352 0.4286-0.6352 1.239-0.6352 1.282 0 1.317 1.551v2.743h-1.317v-2.661q0-0.3234-0.1091-0.4715t-0.3975-0.1481q-0.3897 0-0.5806 0.3468l0.0039 0.0545v2.88h-1.317v-2.654q0-0.3312-0.1052-0.4793t-0.4014-0.1481q-0.378 0-0.5767 0.3468v2.934h-1.313v-4.216z"/><path d="m93.42 174.6h-1.703v4.618h-1.368v-4.618h-1.672v-1.056h4.742z"/><path d="m92.96 177.1q0-0.6313 0.2455-1.122 0.2455-0.4949 0.7053-0.7598 0.4598-0.265 1.079-0.265 0.9469 0 1.492 0.5884 0.5455 0.5845 0.5455 1.594v0.0468q0 0.9858-0.5494 1.566-0.5455 0.5767-1.481 0.5767-0.9001 0-1.446-0.5377-0.5455-0.5416-0.5884-1.465zm1.313 0.0818q0 0.5845 0.1831 0.8573t0.5416 0.2728q0.7014 0 0.717-1.079v-0.1325q0-1.134-0.7248-1.134-0.6585 0-0.7131 0.9781z"/><path d="m99.46 173.5 1.266 3.947 1.263-3.947h1.8v5.674h-1.372v-1.325l0.1325-2.712-1.372 4.037h-0.904l-1.376-4.041 0.1325 2.716v1.325h-1.368v-5.674z"/><path d="m107 179.2q-0.0701-0.1286-0.1247-0.378-0.3624 0.4559-1.013 0.4559-0.5962 0-1.013-0.3585-0.4169-0.3624-0.4169-0.9079 0-0.6858 0.5066-1.037 0.5066-0.3507 1.473-0.3507h0.4052v-0.2221q0-0.5806-0.5027-0.5806-0.4676 0-0.4676 0.4598h-1.313q0-0.6118 0.5183-0.9936 0.5222-0.3819 1.329-0.3819 0.8066 0 1.274 0.3936 0.4676 0.3936 0.4793 1.079v1.866q8e-3 0.5806 0.1792 0.8884v0.0662zm-0.8222-0.8573q0.2455 0 0.4052-0.1052 0.1637-0.1052 0.2338-0.2377v-0.6741h-0.3819q-0.6858 0-0.6858 0.6157 0 0.1792 0.1208 0.2922 0.1208 0.1091 0.3078 0.1091z"/><path d="m110.2 179.2h-1.317v-4.216h1.317zm-1.395-5.303q0-0.2806 0.2026-0.4598t0.526-0.1792 0.526 0.1792 0.2026 0.4598-0.2026 0.4598-0.526 0.1792-0.526-0.1792-0.2026-0.4598z"/><path d="m112.4 179.2h-1.317v-5.985h1.317z"/></g><g fill="none" stroke="#000" stroke-width="1.491"><g transform="translate(.205 -.1807)"><path d="m64.13 185.9h48.09" stop-color="#000000" style="paint-order:markers fill stroke"/><path d="m64.09 185.6v-2.621s2.745-1.515 2.839-3.575c0.0938-2.06-2.932-3.727-2.932-3.727l0.09391-2.434s2.509-0.9873 2.463-3.2-4.898-4.419-2.181-6.817 4.021 2.099 6.348 2.153c2.326 0.0543 3.231-2.434 3.231-2.434l2.536-0.0936s0.8069 2.715 2.779 2.715c1.972 0 3.419-2.621 3.419-2.621l2.854-0.1092s0.5896 2.6 2.568 2.6c1.979 0 3.431-2.352 3.431-2.352l2.601-0.084s0.8661 2.436 2.845 2.436c1.979 0 3.431-2.352 3.431-2.352l2.601-0.084s0.8661 2.436 2.845 2.436c1.979 0 3.431-2.352 3.431-2.352l2.694 0.0537s0.6567 2.395 2.635 2.395c1.979 0 3.431-2.352 3.431-2.352z" fill-rule="evenodd" stop-color="#000000" stroke-dasharray="149.1, 298.2" stroke-dashoffset="55.47" style="paint-order:markers fill stroke"><title>top-wave</title></path></g><g transform="rotate(180,90.9,177)"><path d="m64.13 185.9h48.09" stop-color="#000000" style="paint-order:markers fill stroke"/><path d="m64.09 185.6v-2.621s2.745-1.515 2.839-3.575c0.0938-2.06-2.932-3.727-2.932-3.727l0.09391-2.434s2.509-0.9873 2.463-3.2-4.898-4.419-2.181-6.817 4.021 2.099 6.348 2.153c2.326 0.0543 3.231-2.434 3.231-2.434l2.536-0.0936s0.8069 2.715 2.779 2.715c1.972 0 3.419-2.621 3.419-2.621l2.854-0.1092s0.5896 2.6 2.568 2.6c1.979 0 3.431-2.352 3.431-2.352l2.601-0.084s0.8661 2.436 2.845 2.436c1.979 0 3.431-2.352 3.431-2.352l2.601-0.084s0.8661 2.436 2.845 2.436c1.979 0 3.431-2.352 3.431-2.352l2.694 0.0537s0.6567 2.395 2.635 2.395c1.979 0 3.431-2.352 3.431-2.352-17.99 7.473-35.98 14.95-53.96 22.42z" fill="none" fill-rule="evenodd" stop-color="#000000" stroke-dasharray="149.106, 298.211, 0" stroke-dashoffset="55.47" stroke-width="1.491" style="paint-order:markers fill stroke"><title>buttom-wave</title></path></g></g></g></g></g></svg>
